<?xml version="1.0" encoding="UTF-8"?>
<svg width="76px" height="65px" viewBox="0 0 76 65" version="1.1" xmlns="http://www.w3.org/2000/svg" xmlns:xlink="http://www.w3.org/1999/xlink">
    <!-- Generator: Sketch 54.1 (76490) - https://sketchapp.com -->
    <title>Group 3</title>
    <desc>Created with Sketch.</desc>
    <g id="Onboarding" stroke="none" stroke-width="1" fill="none" fill-rule="evenodd">
        <g id="iPhone-8-Plus" transform="translate(-179.000000, -220.000000)">
            <g id="Group-2" transform="translate(134.000000, 178.000000)">
                <g id="Group-3" transform="translate(45.000000, 42.000000)">
                    <path d="M34.766243,25.7660063 C46.295951,28.6415071 54.8771062,38.4238884 55.3396464,50.9124747 C55.3396464,55.8930429 49.8056818,55.8930429 49.8056818,51.4658712 C49.2522853,39.291149 39.291149,30.4368055 27.6698232,30.4368055 C15.495101,30.4368055 6.08736111,39.291149 5.53396464,51.4658712 C5.53396464,55.8930429 -3.33955086e-13,55.3396464 -3.33955086e-13,50.9124747 C0.920741383,38.4824661 9.5011332,28.733335 20.643523,25.8069243 C16.5421147,23.4299134 13.8349116,19.0015766 13.8349116,13.8349116 C13.8349116,6.08736111 19.9222727,1.59872116e-14 27.6698232,1.59872116e-14 C35.4173737,1.59872116e-14 41.5047348,6.08736111 41.5047348,13.8349116 C41.5047348,18.9720764 38.8283582,23.3793203 34.7662405,25.7660078 Z M27.6698232,5.53396464 C23.2426515,5.53396464 19.3688763,9.4077399 19.3688763,13.8349116 C19.3688763,18.2620833 23.2426515,22.1358586 27.6698232,22.1358586 C32.0969949,22.1358586 35.9707702,18.2620833 35.9707702,13.8349116 C35.9707702,9.4077399 32.0969949,5.53396464 27.6698232,5.53396464 Z" id="Combined-Shape" fill="#FFFFFF" fill-rule="nonzero" opacity="0.5"></path>
                    <g id="Group" transform="translate(45.000000, 34.000000)">
                        <circle id="Oval" fill="#FFFFFF" cx="15.5" cy="15.5" r="15.5"></circle>
                        <path d="M15.5,15.5 L15.5,8.5 L15.5,15.5 L7.5,15.5 L15.5,15.5 Z M15.5,15.5 L15.5,23.3953736 L15.5,15.5 L23.5,15.5 L15.5,15.5 Z" id="Combined-Shape" stroke="#218C74" stroke-width="3" stroke-linecap="round" stroke-linejoin="round"></path>
                    </g>
                </g>
            </g>
        </g>
    </g>
</svg>