<?xml version="1.0" encoding="UTF-8"?>
<svg width="21px" height="25px" viewBox="0 0 21 25" version="1.1" xmlns="http://www.w3.org/2000/svg" xmlns:xlink="http://www.w3.org/1999/xlink">
    <!-- Generator: Sketch 54.1 (76490) - https://sketchapp.com -->
    <title>Shape</title>
    <desc>Created with Sketch.</desc>
    <g id="App-Pages" stroke="none" stroke-width="1" fill="none" fill-rule="evenodd">
        <g id="iPhone-8-Plus-Copy-3" transform="translate(-49.000000, -499.000000)" fill="#FFFFFF">
            <g id="Inspection-History" transform="translate(20.000000, 482.000000)">
                <path d="M47.1818182,19.2727273 L42.4090909,19.2727273 C41.9545455,17.9090909 40.7045455,17 39.2272727,17 C37.75,17 36.5,17.9090909 36.0454545,19.2727273 L31.2727273,19.2727273 C30.0227273,19.2727273 29,20.2954545 29,21.5454545 L29,39.7272727 C29,40.9772727 30.0227273,42 31.2727273,42 L47.1818182,42 C48.4318182,42 49.4545455,40.9772727 49.4545455,39.7272727 L49.4545455,21.5454545 C49.4545455,20.2954545 48.4318182,19.2727273 47.1818182,19.2727273 L47.1818182,19.2727273 Z M39.2272727,19.2727273 C39.9090909,19.2727273 40.3636364,19.7272727 40.3636364,20.4090909 C40.3636364,21.0909091 39.9090909,21.5454545 39.2272727,21.5454545 C38.5454545,21.5454545 38.0909091,21.0909091 38.0909091,20.4090909 C38.0909091,19.7272727 38.5454545,19.2727273 39.2272727,19.2727273 L39.2272727,19.2727273 Z M47.1818182,39.7272727 L31.2727273,39.7272727 L31.2727273,21.5454545 L33.5454545,21.5454545 L33.5454545,24.9545455 L44.9090909,24.9545455 L44.9090909,21.5454545 L47.1818182,21.5454545 L47.1818182,39.7272727 L47.1818182,39.7272727 Z" id="Shape"></path>
            </g>
        </g>
    </g>
</svg>