<?xml version="1.0" encoding="UTF-8"?>
<svg width="20px" height="18px" viewBox="0 0 20 18" version="1.1" xmlns="http://www.w3.org/2000/svg" xmlns:xlink="http://www.w3.org/1999/xlink">
    <!-- Generator: Sketch 54.1 (76490) - https://sketchapp.com -->
    <title>Shape</title>
    <desc>Created with Sketch.</desc>
    <g id="App-Pages" stroke="none" stroke-width="1" fill="none" fill-rule="evenodd">
        <g id="New-Inspection" transform="translate(-19.000000, -413.000000)" fill="#198E77">
            <path d="M36.6888889,414.13625 C36.4666667,413.4725 35.8444444,413 35.1111111,413 L22.8888889,413 C22.1555556,413 21.5444444,413.4725 21.3111111,414.13625 L19,420.875 L19,429.875 C19,430.49375 19.5,431 20.1111111,431 L21.2222222,431 C21.8333333,431 22.3333333,430.49375 22.3333333,429.875 L22.3333333,428.75 L35.6666667,428.75 L35.6666667,429.875 C35.6666667,430.49375 36.1666667,431 36.7777778,431 L37.8888889,431 C38.5,431 39,430.49375 39,429.875 L39,420.875 L36.6888889,414.13625 L36.6888889,414.13625 Z M22.8888889,425.375 C21.9666667,425.375 21.2222222,424.62125 21.2222222,423.6875 C21.2222222,422.75375 21.9666667,422 22.8888889,422 C23.8111111,422 24.5555556,422.75375 24.5555556,423.6875 C24.5555556,424.62125 23.8111111,425.375 22.8888889,425.375 L22.8888889,425.375 Z M35.1111111,425.375 C34.1888889,425.375 33.4444444,424.62125 33.4444444,423.6875 C33.4444444,422.75375 34.1888889,422 35.1111111,422 C36.0333333,422 36.7777778,422.75375 36.7777778,423.6875 C36.7777778,424.62125 36.0333333,425.375 35.1111111,425.375 L35.1111111,425.375 Z M21.2222222,419.75 L22.8888889,414.6875 L35.1111111,414.6875 L36.7777778,419.75 L21.2222222,419.75 L21.2222222,419.75 Z" id="Shape"></path>
        </g>
    </g>
</svg>