<?xml version="1.0" encoding="UTF-8"?>
<svg width="24px" height="21px" viewBox="0 0 24 21" version="1.1" xmlns="http://www.w3.org/2000/svg" xmlns:xlink="http://www.w3.org/1999/xlink">
    <!-- Generator: Sketch 54.1 (76490) - https://sketchapp.com -->
    <title>Shape</title>
    <desc>Created with Sketch.</desc>
    <g id="App-Pages" stroke="none" stroke-width="1" fill="none" fill-rule="evenodd">
        <g id="iPhone-8-Plus-Copy-3" transform="translate(-48.000000, -428.000000)" fill="#FFFFFF">
            <g id="Start-New-Inspection" transform="translate(20.000000, 408.000000)">
                <path d="M48.637037,21.325625 C48.3777778,20.55125 47.6518519,20 46.7962963,20 L32.537037,20 C31.6814815,20 30.9685185,20.55125 30.6962963,21.325625 L28,29.1875 L28,39.6875 C28,40.409375 28.5833333,41 29.2962963,41 L30.5925926,41 C31.3055556,41 31.8888889,40.409375 31.8888889,39.6875 L31.8888889,38.375 L47.4444444,38.375 L47.4444444,39.6875 C47.4444444,40.409375 48.0277778,41 48.7407407,41 L50.037037,41 C50.75,41 51.3333333,40.409375 51.3333333,39.6875 L51.3333333,29.1875 L48.637037,21.325625 L48.637037,21.325625 Z M32.537037,34.4375 C31.4611111,34.4375 30.5925926,33.558125 30.5925926,32.46875 C30.5925926,31.379375 31.4611111,30.5 32.537037,30.5 C33.612963,30.5 34.4814815,31.379375 34.4814815,32.46875 C34.4814815,33.558125 33.612963,34.4375 32.537037,34.4375 L32.537037,34.4375 Z M46.7962963,34.4375 C45.7203704,34.4375 44.8518519,33.558125 44.8518519,32.46875 C44.8518519,31.379375 45.7203704,30.5 46.7962963,30.5 C47.8722222,30.5 48.7407407,31.379375 48.7407407,32.46875 C48.7407407,33.558125 47.8722222,34.4375 46.7962963,34.4375 L46.7962963,34.4375 Z M30.5925926,27.875 L32.537037,21.96875 L46.7962963,21.96875 L48.7407407,27.875 L30.5925926,27.875 L30.5925926,27.875 Z" id="Shape"></path>
            </g>
        </g>
    </g>
</svg>