<?xml version="1.0" encoding="UTF-8"?>
<svg width="53px" height="53px" viewBox="0 0 53 53" version="1.1" xmlns="http://www.w3.org/2000/svg" xmlns:xlink="http://www.w3.org/1999/xlink">
    <!-- Generator: Sketch 54.1 (76490) - https://sketchapp.com -->
    <title>Group 3</title>
    <desc>Created with Sketch.</desc>
    <g id="Profile" stroke="none" stroke-width="1" fill="none" fill-rule="evenodd">
        <g id="Side-Menu" transform="translate(-31.000000, -519.000000)">
            <g id="Group-2-Copy" transform="translate(15.000000, 509.000000)">
                <g id="Group-3" transform="translate(16.000000, 10.000000)">
                    <rect id="Rectangle" fill="#099897" fill-rule="nonzero" x="0" y="0" width="52.5" height="52.5" rx="26.25"></rect>
                    <path d="M26.91,14.39 C26.39,13.87 25.61,13.87 25.09,14.39 L13.39,26.09 C12.87,26.61 12.87,27.39 13.39,27.91 L25.09,39.61 C25.61,40.13 26.39,40.13 26.91,39.61 L38.61,27.91 C39.13,27.39 39.13,26.61 38.61,26.09 L26.91,14.39 Z M28.6,27 L23.4,27 L23.4,30.9 L20.8,30.9 L20.8,25.7 C20.8,24.92 21.32,24.4 22.1,24.4 L28.6,24.4 L28.6,21.15 L33.15,25.7 L28.6,30.25 L28.6,27 Z" id="Shape" fill="#FFFFFF"></path>
                </g>
            </g>
        </g>
    </g>
</svg>