<?xml version="1.0" encoding="UTF-8"?>
<svg width="23px" height="25px" viewBox="0 0 23 25" version="1.1" xmlns="http://www.w3.org/2000/svg" xmlns:xlink="http://www.w3.org/1999/xlink">
    <!-- Generator: Sketch 54.1 (76490) - https://sketchapp.com -->
    <title>Combined Shape</title>
    <desc>Created with Sketch.</desc>
    <g id="App-Pages" stroke="none" stroke-width="1" fill="none" fill-rule="evenodd">
        <g id="iPhone-8-Plus-Copy-3" transform="translate(-48.000000, -573.000000)" fill="#FFFFFF">
            <g id="Book-an-Inspection" transform="translate(20.000000, 556.000000)">
                <path d="M48,19.5 C49.375,19.5 50.5,20.625 50.5,22 L50.5,39.5 C50.5,40.875 49.375,42 48,42 L30.5,42 C29.125,42 28,40.875 28,39.5 L28,22 C28,20.625 29.125,19.5 30.5,19.5 L31.75,19.5 L31.75,17 L34.25,17 L34.25,19.5 L44.25,19.5 L44.25,17 L46.75,17 L46.75,19.5 L48,19.5 Z M48,39.5 L48,25.75 L30.5,25.75 L30.5,39.5 L48,39.5 Z M33,28.25 L39.25,28.25 L39.25,34.5 L33,34.5 L33,28.25 Z" id="Combined-Shape"></path>
            </g>
        </g>
    </g>
</svg>