<?xml version="1.0" encoding="UTF-8"?>
<svg width="94px" height="33px" viewBox="0 0 94 33" version="1.1" xmlns="http://www.w3.org/2000/svg" xmlns:xlink="http://www.w3.org/1999/xlink">
    <!-- Generator: Sketch 54.1 (76490) - https://sketchapp.com -->
    <title>Combined Shape</title>
    <desc>Created with Sketch.</desc>
    <g id="Onboarding" stroke="none" stroke-width="1" fill="none" fill-rule="evenodd">
        <g id="Splash-Screen" transform="translate(-160.000000, -673.000000)" fill="#FFFFFF">
            <path d="M179.850202,705.768713 L175.685556,705.768713 L174.72596,698.700329 C174.644074,698.066996 174.584579,697.512349 174.547475,697.036389 C174.495657,696.568107 174.441919,695.902147 174.390101,695.038511 C174.232963,695.912955 174.024694,696.777435 173.766364,697.627501 C173.706869,697.81942 173.660808,697.974874 173.63202,698.109218 L171.409596,705.768713 L168.438687,705.768713 L166.218182,698.109218 C166.185407,697.945537 166.140502,697.78452 166.083838,697.627501 C165.807896,696.782968 165.602478,695.917003 165.469697,695.038511 C165.410202,695.858006 165.354545,696.466389 165.302727,696.86942 C165.279697,697.076693 165.247071,697.381844 165.20101,697.784874 C165.154949,698.187905 165.124242,698.491137 165.101212,698.700329 L164.141616,705.768713 L160,705.768713 L162.521818,689.421036 L166.93596,689.421036 L169.40404,697.852046 C169.448182,698.007501 169.478889,698.109218 169.492323,698.153359 C169.692244,698.779431 169.837999,699.421523 169.92798,700.072551 C169.96436,699.741896 170.02076,699.413752 170.096869,699.089925 C170.126296,698.977332 170.237609,698.556389 170.430808,697.827097 L172.925758,689.419117 L177.339899,689.419117 L179.850202,705.768713 Z M185.156768,705.768713 L185.156768,698.308814 L179.437576,689.421036 L184.552222,689.421036 L186.751616,693.631743 C186.782413,693.671092 186.80523,693.716074 186.818788,693.764167 C187.036197,694.1569 187.197689,694.578073 187.298586,695.01548 C187.391767,694.590267 187.553837,694.183147 187.778384,693.810228 L187.866667,693.631743 L190.044949,689.421036 L195.169192,689.421036 L189.451919,698.308814 L189.451919,705.768713 L185.156768,705.768713 Z M203.051313,705.768713 L203.051313,689.421036 L207.714949,689.421036 C208.61697,689.421036 209.378889,689.439588 210.000707,689.476693 C210.516554,689.502375 211.029764,689.566526 211.536061,689.668612 C212.204924,689.822737 212.835186,690.112069 213.388081,690.518814 C213.979402,690.963014 214.442856,691.555572 214.731515,692.236491 C215.061681,692.949856 215.226356,693.728615 215.213232,694.514571 C215.213232,695.773561 214.900404,696.804807 214.274747,697.608309 C213.649091,698.41181 212.744512,698.936389 211.56101,699.182046 L216.017374,705.770632 L210.99101,705.770632 L207.23899,699.372046 L207.23899,705.770632 L203.051313,705.768713 Z M207.23899,697.147703 L208.066162,697.147703 C209.041111,697.147703 209.744815,696.98777 210.177273,696.667905 C210.616128,696.310935 210.835556,695.793393 210.835556,695.115278 C210.835556,694.297703 210.630842,693.717467 210.221414,693.374571 C209.811987,693.031676 209.11596,692.856389 208.133333,692.848713 L207.240909,692.848713 L207.23899,697.147703 Z M217.834848,705.768713 L217.834848,689.421036 L222.333434,689.421036 L222.333434,705.768713 L217.834848,705.768713 Z M225.93,705.768713 L225.93,689.421036 L229.334646,689.421036 C231.910202,689.421036 233.707845,689.540666 234.727576,689.779925 C235.72088,689.989792 236.662367,690.395617 237.49697,690.973662 C238.519543,691.665567 239.334303,692.622977 239.853737,693.743056 C240.923388,696.207553 240.923388,699.005226 239.853737,701.469723 C239.326663,702.584369 238.513436,703.539315 237.49697,704.237198 C236.678976,704.791814 235.761356,705.182845 234.794747,705.388713 C233.812121,705.634369 232.241582,705.757837 230.083131,705.759117 L225.93,705.759117 L225.93,705.768713 Z M230.344141,702.104975 L231.092626,702.104975 C232.849327,702.104975 234.125589,701.740969 234.921414,701.012955 C235.717239,700.284942 236.11899,699.151339 236.126667,697.612147 C236.126667,696.065278 235.724916,694.923999 234.921414,694.188309 C234.117912,693.452618 232.84037,693.084773 231.088788,693.084773 L230.340303,693.084773 L230.344141,702.104975 Z M243.448384,705.768713 L243.448384,689.421036 L253.462727,689.421036 L253.462727,693.017602 L247.791515,693.017602 L247.791515,695.842652 L253.140303,695.842652 L253.140303,699.358612 L247.791515,699.358612 L247.791515,702.104975 L253.462727,702.104975 L253.462727,705.768713 L243.448384,705.768713 Z M164.076364,673.188511 L164.076364,684.703662 L162.070808,684.703662 L162.070808,673.188511 L164.076364,673.188511 Z M175.196162,673.188511 L177.203636,673.188511 L177.203636,684.703662 L175.512828,684.703662 L169.179495,676.510632 L169.179495,684.703662 L167.170101,684.703662 L167.170101,673.188511 L169.035556,673.188511 L175.190404,681.149319 L175.196162,673.188511 Z M181.972828,676.790834 C182.070706,676.978764 182.216325,677.137621 182.395051,677.25144 C182.655538,677.421612 182.938458,677.554675 183.235657,677.646794 C183.592626,677.765783 184.046195,677.89373 184.596364,678.030632 C185.143122,678.165174 185.680387,678.335714 186.204646,678.541137 C186.624034,678.70194 187.013323,678.932269 187.356162,679.22245 C187.655827,679.479967 187.895009,679.800406 188.056667,680.160935 C188.225436,680.558034 188.307235,680.986663 188.296566,681.418006 C188.306118,681.922439 188.203187,682.422667 187.995253,682.882349 C187.799815,683.302747 187.512561,683.673947 187.154646,683.968612 C186.772176,684.276364 186.332539,684.505314 185.861111,684.642248 C185.322204,684.800811 184.762729,684.878426 184.20101,684.872551 C183.330469,684.876413 182.466391,684.722972 181.650404,684.419622 C180.817387,684.103371 180.053067,683.629662 179.399192,683.024369 L180.61596,681.577299 C181.124935,682.026138 181.695621,682.399702 182.310606,682.686592 C182.922938,682.952524 183.585369,683.083439 184.252828,683.07043 C184.777798,683.097755 185.298086,682.959459 185.740202,682.675076 C186.095501,682.437047 186.304104,682.033604 186.292929,681.606086 C186.295883,681.414516 186.259296,681.224394 186.185455,681.047602 C186.097015,680.863087 185.959592,680.706411 185.788182,680.594672 C185.542709,680.432388 185.27683,680.303321 184.997475,680.210834 C184.567477,680.060284 184.129952,679.932166 183.686667,679.826996 C183.130637,679.700645 182.582684,679.541066 182.045758,679.349117 C181.610647,679.19722 181.203467,678.974827 180.840505,678.690834 C180.522397,678.432841 180.268759,678.104294 180.099697,677.731238 C179.917711,677.299967 179.830656,676.834585 179.844444,676.366693 C179.837785,675.892396 179.938153,675.422702 180.138081,674.992551 C180.330358,674.586769 180.604845,674.225361 180.944141,673.931238 C181.307467,673.623789 181.728231,673.391553 182.18202,673.248006 C182.691893,673.085356 183.224433,673.005022 183.759596,673.010026 C184.534765,672.999452 185.305789,673.124816 186.037677,673.38043 C186.724519,673.634983 187.365534,673.99924 187.935758,674.459016 L186.851414,675.994369 C186.369996,675.635888 185.84507,675.339892 185.289192,675.11346 C184.791908,674.913379 184.261074,674.809817 183.725051,674.808309 C183.231761,674.779381 182.743623,674.921754 182.343232,675.211339 C182.034298,675.442093 181.851659,675.80453 181.85,676.190127 C181.84596,676.396987 181.887913,676.602163 181.972828,676.790834 Z M199.243636,678.765682 C199.012004,679.24611 198.673995,679.667472 198.255253,679.997804 C197.817556,680.337837 197.319367,680.591816 196.787071,680.746288 C196.20426,680.920011 195.598842,681.006037 194.990707,681.001541 L192.699192,681.001541 L192.699192,684.703662 L190.691717,684.703662 L190.691717,673.188511 L195.232525,673.188511 C195.848944,673.180634 196.462614,673.272004 197.05,673.459117 C197.559888,673.621557 198.030447,673.888206 198.431818,674.242147 C198.807676,674.579197 199.105092,674.994531 199.303131,675.458915 C199.51275,675.964039 199.615976,676.506956 199.606364,677.053763 C199.619298,677.644759 199.495143,678.230717 199.243636,678.765682 Z M196.873434,675.533763 C196.423064,675.188309 195.817879,675.014942 195.057879,675.013662 L192.699192,675.013662 L192.699192,679.176389 L195.057879,679.176389 C195.825556,679.176389 196.433939,678.98447 196.88303,678.600632 C197.326207,678.225927 197.572486,677.66826 197.550909,677.088309 C197.550909,676.399959 197.325084,675.881777 196.873434,675.533763 Z M210.200303,675.013662 L203.686566,675.013662 L203.686566,677.974975 L209.459495,677.974975 L209.459495,679.800127 L203.686566,679.800127 L203.686566,682.870834 L210.282828,682.870834 L210.282828,684.697905 L201.679091,684.697905 L201.679091,673.182753 L210.200303,673.182753 L210.200303,675.013662 Z M221.788384,683.707602 C221.46308,683.956228 221.113254,684.17101 220.744343,684.348612 C220.35419,684.536333 219.942257,684.674933 219.51798,684.761238 C219.033293,684.857309 218.540058,684.90361 218.04596,684.89942 C217.24472,684.910806 216.4497,684.757289 215.710303,684.44841 C215.016681,684.155598 214.387893,683.728361 213.860202,683.191339 C213.333152,682.648908 212.917206,682.00869 212.635758,681.306693 C212.335165,680.565003 212.183858,679.771295 212.190505,678.971036 C212.185512,678.177437 212.333425,677.390304 212.626162,676.652652 C213.190823,675.218157 214.3084,674.070842 215.727576,673.468713 C216.487402,673.149967 217.304569,672.990584 218.128485,673.00043 C218.611501,672.996401 219.093706,673.040764 219.567879,673.132854 C219.977765,673.212874 220.377943,673.336402 220.761616,673.501339 C221.114311,673.658602 221.449997,673.851525 221.763434,674.077097 C222.071613,674.296858 222.363455,674.53867 222.636667,674.800632 L221.337374,676.297602 C220.899504,675.886128 220.406698,675.537353 219.87303,675.261238 C219.326214,674.99149 218.72276,674.856585 218.113131,674.867804 C217.588496,674.862108 217.068992,674.971512 216.591212,675.188309 C216.134157,675.395291 215.723076,675.69153 215.382121,676.059622 C215.037668,676.435098 214.769159,676.873705 214.591414,677.351238 C214.402557,677.86154 214.308256,678.401981 214.313131,678.946086 C214.308749,679.493277 214.403017,680.036777 214.591414,680.550531 C214.769001,681.032733 215.037418,681.476403 215.382121,681.857501 C215.721617,682.229675 216.132896,682.529322 216.591212,682.73841 C217.069282,682.954321 217.588588,683.063683 218.113131,683.058915 C218.739784,683.075827 219.360879,682.937366 219.92101,682.655884 C220.465665,682.358228 220.968944,681.990448 221.41798,681.561945 L222.719192,682.878511 C222.432034,683.179778 222.120728,683.457065 221.788384,683.707602 Z M229.708889,684.703662 L227.670707,684.703662 L227.670707,675.063561 L224.024242,675.063561 L224.024242,673.188511 L233.366869,673.188511 L233.366869,675.063561 L229.720404,675.063561 L229.708889,684.703662 Z" id="Combined-Shape"></path>
        </g>
    </g>
</svg>