<?xml version="1.0" encoding="UTF-8"?>
<svg width="81px" height="30px" viewBox="0 0 81 30" version="1.1" xmlns="http://www.w3.org/2000/svg" xmlns:xlink="http://www.w3.org/1999/xlink">
    <!-- Generator: Sketch 54.1 (76490) - https://sketchapp.com -->
    <title>INSPECTMYRIDE</title>
    <desc>Created with Sketch.</desc>
    <g id="App-Pages" stroke="none" stroke-width="1" fill="none" fill-rule="evenodd">
        <g id="iPhone-8-Plus-Copy-3" transform="translate(-167.000000, -680.000000)" fill="#FFFFFF" fill-rule="nonzero">
            <path d="M177.771964,680.273458 L179.048101,680.273458 L179.048101,691.02947 L177.771964,691.02947 L177.771964,680.273458 Z M181.721912,680.273458 L183.332276,680.273458 L189.56104,689.206417 L189.591424,689.206417 L189.591424,680.273458 L190.867561,680.273458 L190.867561,691.02947 L189.257198,691.02947 L183.028434,682.096511 L182.998049,682.096511 L182.998049,691.02947 L181.721912,691.02947 L181.721912,680.273458 Z M198.645921,682.172471 C198.43323,681.828115 198.149647,681.577448 197.795163,681.420462 C197.440678,681.263476 197.071007,681.184984 196.686139,681.184984 C196.402551,681.184984 196.124032,681.220432 195.850573,681.291329 C195.577113,681.362226 195.33151,681.46857 195.113755,681.610363 C194.896001,681.752157 194.721293,681.939525 194.589628,682.172471 C194.457962,682.405418 194.39213,682.678873 194.39213,682.992845 C194.39213,683.23592 194.43011,683.45114 194.506071,683.63851 C194.582032,683.82588 194.7061,683.995524 194.878278,684.147445 C195.050456,684.299367 195.283399,684.441159 195.577115,684.572825 C195.87083,684.70449 196.230373,684.836154 196.655754,684.967819 C197.071007,685.099485 197.473594,685.241276 197.863527,685.393198 C198.25346,685.54512 198.597811,685.737552 198.89659,685.970498 C199.19537,686.203445 199.433377,686.494624 199.610619,686.844045 C199.787862,687.193465 199.876481,687.6315 199.876481,688.158162 C199.876481,688.694952 199.770138,689.160839 199.557447,689.555836 C199.344756,689.950833 199.063705,690.27746 198.714285,690.535727 C198.364865,690.793994 197.962278,690.986425 197.506512,691.113027 C197.050747,691.239629 196.579796,691.302928 196.093646,691.302928 C195.779675,691.302928 195.465708,691.275076 195.151736,691.219372 C194.837764,691.163667 194.536457,691.077579 194.247805,690.961106 C193.959154,690.844633 193.688231,690.692713 193.435028,690.505343 C193.181824,690.317972 192.964073,690.087561 192.781767,689.814102 L193.875599,688.917767 C194.108545,689.312764 194.432641,689.611539 194.847894,689.814102 C195.263147,690.016664 195.703713,690.117944 196.169607,690.117944 C196.443066,690.117944 196.719053,690.077432 196.997577,689.996407 C197.2761,689.915382 197.526767,689.796378 197.749586,689.639393 C197.972405,689.482407 198.154708,689.287443 198.296502,689.054496 C198.438296,688.82155 198.509192,688.553158 198.509192,688.249315 C198.509192,687.915087 198.453488,687.644163 198.342078,687.436537 C198.230669,687.22891 198.058494,687.049139 197.825547,686.897217 C197.5926,686.745295 197.298889,686.608568 196.944404,686.48703 C196.58992,686.365493 196.174673,686.223701 195.698652,686.061651 C195.313783,685.940114 194.959304,685.800854 194.635204,685.643868 C194.311104,685.486882 194.030053,685.294451 193.792042,685.066568 C193.554031,684.838685 193.366664,684.56523 193.229934,684.246194 C193.093204,683.927158 193.024841,683.544827 193.024841,683.09919 C193.024841,682.582656 193.12612,682.131961 193.328683,681.747092 C193.531245,681.362224 193.8047,681.040661 194.149057,680.782394 C194.493413,680.524126 194.88334,680.329163 195.318849,680.197497 C195.754358,680.065832 196.210117,680 196.686139,680 C197.293826,680 197.848332,680.093684 198.349674,680.281054 C198.851017,680.468424 199.299179,680.795051 199.694176,681.260945 L198.645921,682.172471 Z M201.988184,680.273458 L205.178527,680.273458 C205.674805,680.273458 206.148288,680.321566 206.598989,680.417783 C207.049691,680.514 207.449745,680.676048 207.799166,680.90393 C208.148586,681.131813 208.427105,681.435652 208.634732,681.815457 C208.842358,682.195262 208.94617,682.66368 208.94617,683.220727 C208.94617,683.808158 208.834762,684.294301 208.611943,684.679169 C208.389125,685.064038 208.10301,685.367877 207.753589,685.590696 C207.404169,685.813514 207.021838,685.970498 206.606585,686.061651 C206.191332,686.152804 205.796341,686.19838 205.421601,686.19838 L203.264321,686.19838 L203.264321,691.02947 L201.988184,691.02947 L201.988184,680.273458 Z M203.264321,685.013396 L205.421601,685.013396 C206.059672,685.013396 206.578731,684.869072 206.978792,684.580421 C207.378853,684.291769 207.57888,683.843606 207.57888,683.235919 C207.57888,682.628232 207.378853,682.180069 206.978792,681.891417 C206.578731,681.602766 206.059672,681.458442 205.421601,681.458442 L203.264321,681.458442 L203.264321,685.013396 Z M210.997104,680.273458 L217.757592,680.273458 L217.757592,681.458442 L212.273241,681.458442 L212.273241,684.83109 L217.392982,684.83109 L217.392982,686.016075 L212.273241,686.016075 L212.273241,689.844486 L218.03105,689.844486 L218.03105,691.02947 L210.997104,691.02947 L210.997104,680.273458 Z M227.54131,682.491506 C227.21721,682.055996 226.817155,681.729369 226.341133,681.511615 C225.865112,681.29386 225.368841,681.184984 224.852307,681.184984 C224.254748,681.184984 223.705305,681.30652 223.203963,681.549595 C222.702621,681.79267 222.26965,682.119297 221.905038,682.529486 C221.540425,682.939675 221.256842,683.41569 221.05428,683.957544 C220.851717,684.499399 220.750438,685.064033 220.750438,685.651464 C220.750438,686.279408 220.851717,686.864298 221.05428,687.406153 C221.256842,687.948007 221.537893,688.418958 221.897442,688.819019 C222.25699,689.21908 222.687429,689.535579 223.188771,689.768525 C223.690113,690.001472 224.244619,690.117944 224.852307,690.117944 C225.510635,690.117944 226.098057,689.988812 226.614591,689.730545 C227.131126,689.472278 227.58182,689.100075 227.966689,688.613925 L228.923792,689.419107 C228.437642,690.067307 227.852752,690.543321 227.169103,690.847165 C226.485455,691.151009 225.713197,691.302928 224.852307,691.302928 C224.08257,691.302928 223.363484,691.161137 222.695028,690.877549 C222.026571,690.593962 221.446745,690.201503 220.955531,689.700161 C220.464317,689.198819 220.079454,688.603801 219.800931,687.915088 C219.522408,687.226376 219.383148,686.471842 219.383148,685.651464 C219.383148,684.861471 219.517344,684.122129 219.785739,683.433416 C220.054134,682.744704 220.431401,682.147154 220.917551,681.640748 C221.403701,681.134342 221.980995,680.734287 222.649451,680.440571 C223.317907,680.146856 224.052185,680 224.852307,680 C225.581532,680 226.282894,680.131664 226.956414,680.394995 C227.629934,680.658326 228.194568,681.088765 228.650334,681.686324 L227.54131,682.491506 Z M237.91752,681.458442 L234.362566,681.458442 L234.362566,691.02947 L233.086429,691.02947 L233.086429,681.458442 L229.531476,681.458442 L229.531476,680.273458 L237.91752,680.273458 L237.91752,681.458442 Z M167,695.277184 L171.660939,695.277184 L174.880146,704.401564 L174.919646,704.401564 L178.158603,695.277184 L182.799792,695.277184 L182.799792,709.26 L179.718833,709.26 L179.718833,698.535891 L179.679333,698.535891 L176.005882,709.26 L173.655663,709.26 L170.120459,698.535891 L170.08096,698.535891 L170.08096,709.26 L167,709.26 L167,695.277184 Z M189.08021,703.295578 L183.826779,695.277184 L187.658228,695.277184 L190.62069,700.510865 L193.760898,695.277184 L197.4146,695.277184 L192.161169,703.295578 L192.161169,709.26 L189.08021,709.26 L189.08021,703.295578 Z M204.28751,695.277184 L209.698939,695.277184 C210.409933,695.277184 211.084709,695.346307 211.723287,695.484556 C212.361865,695.622805 212.921436,695.853216 213.402015,696.175797 C213.882594,696.498378 214.264419,696.932868 214.5475,697.47928 C214.830581,698.025692 214.972119,698.707051 214.972119,699.523378 C214.972119,700.51087 214.715375,701.350226 214.20188,702.04147 C213.688384,702.732714 212.937901,703.170496 211.950409,703.354828 L215.505362,709.26 L211.812161,709.26 L208.889199,703.670823 L207.368469,703.670823 L207.368469,709.26 L204.28751,709.26 L204.28751,695.277184 Z M207.368469,701.063858 L209.185445,701.063858 C209.461943,701.063858 209.754895,701.053983 210.064309,701.034233 C210.373723,701.014483 210.653508,700.955235 210.903673,700.856485 C211.153838,700.757736 211.361208,700.603032 211.52579,700.392367 C211.690372,700.181702 211.772661,699.885458 211.772661,699.503628 C211.772661,699.148131 211.700246,698.865054 211.555414,698.654389 C211.410582,698.443724 211.226253,698.282437 211.002422,698.170521 C210.77859,698.058605 210.521846,697.982898 210.232182,697.943399 C209.942517,697.903899 209.659441,697.88415 209.382943,697.88415 L207.368469,697.88415 L207.368469,701.063858 Z M217.045842,695.277184 L220.126802,695.277184 L220.126802,709.26 L217.045842,709.26 L217.045842,695.277184 Z M222.931265,695.277184 L227.552704,695.277184 C228.671862,695.277184 229.735045,695.402264 230.742287,695.652429 C231.749529,695.902593 232.628384,696.307459 233.378877,696.867038 C234.129371,697.426617 234.725149,698.154058 235.166229,699.049384 C235.607309,699.94471 235.827845,701.030935 235.827845,702.308091 C235.827845,703.440415 235.613892,704.437767 235.185979,705.300177 C234.758066,706.162587 234.182037,706.886737 233.457876,707.472648 C232.733716,708.05856 231.897652,708.502925 230.949659,708.805756 C230.001667,709.108587 229.007607,709.26 227.967449,709.26 L222.931265,709.26 L222.931265,695.277184 Z M226.012224,706.416037 L227.611953,706.416037 C228.322947,706.416037 228.984557,706.343622 229.596802,706.19879 C230.209047,706.053958 230.738993,705.813672 231.186656,705.477925 C231.634319,705.142177 231.986519,704.701104 232.243267,704.154692 C232.500015,703.60828 232.628387,702.940087 232.628387,702.150093 C232.628387,701.465432 232.500015,700.869654 232.243267,700.362742 C231.986519,699.855829 231.640902,699.437797 231.206406,699.108633 C230.77191,698.779469 230.261713,698.5326 229.675801,698.368018 C229.089889,698.203436 228.474362,698.121146 227.8292,698.121146 L226.012224,698.121146 L226.012224,706.416037 Z M238.039816,695.277184 L247.539441,695.277184 L247.539441,698.121146 L241.120776,698.121146 L241.120776,700.728112 L247.183946,700.728112 L247.183946,703.572075 L241.120776,703.572075 L241.120776,706.416037 L247.894937,706.416037 L247.894937,709.26 L238.039816,709.26 L238.039816,695.277184 Z" id="INSPECTMYRIDE"></path>
        </g>
    </g>
</svg>