<?xml version="1.0" encoding="UTF-8"?>
<svg width="153px" height="38px" viewBox="0 0 153 38" version="1.1" xmlns="http://www.w3.org/2000/svg" xmlns:xlink="http://www.w3.org/1999/xlink">
    <!-- Generator: Sketch 54.1 (76490) - https://sketchapp.com -->
    <title>Combined Shape</title>
    <desc>Created with Sketch.</desc>
    <g id="Onboarding" stroke="none" stroke-width="1" fill="none" fill-rule="evenodd">
        <g id="Login" transform="translate(-131.000000, -668.000000)" fill="#D8D8D8">
            <path d="M170.552814,668.967258 C172.207158,669.226349 173.585138,670.38938 174.300996,671.105238 C167.976402,669.292562 161.192348,671.614824 157.305327,676.923059 C153.418306,682.231294 153.252557,689.399893 156.890087,694.882107 L149.18837,702.583824 C146.844397,702.508336 144.496585,702.401501 142.144936,702.263319 L142.144936,704.170996 C142.111608,705.019922 141.431598,705.700767 140.582713,705.735137 L133.445239,705.735137 C132.586036,705.72476 131.892339,705.03021 131.883016,704.170996 C131.883016,699.346147 131.883016,694.588471 131.950188,689.830794 C132.019279,684.123117 134.397158,682.424632 134.942208,681.879582 L132.019279,681.879582 C131.747418,681.884852 131.485135,681.779177 131.292864,681.586906 C131.100593,681.394635 130.994918,681.132352 131.000188,680.860491 L131.000188,679.568875 C131.000188,679.025743 131.679582,678.549784 132.222713,678.482612 L137.183824,677.734127 L140.513622,671.617662 C140.786148,671.210794 142.484633,669.306955 144.659077,668.967258 C153.242147,667.677581 161.969744,667.677581 170.552814,668.967258 Z M146.630087,695.738067 C146.699178,695.131602 146.699178,694.657561 146.570592,694.239178 C146.094633,693.423521 145.551501,692.813218 144.803016,692.40443 C141.676653,691.725036 138.414026,691.316248 135.220491,690.636854 C135.084228,690.90938 135.084228,691.452511 135.153319,692.131905 C135.633298,693.096359 136.453877,693.848556 137.45635,694.243016 C140.513622,694.718976 143.572814,695.262107 146.630087,695.738067 Z M169.627764,679.576551 C166.229758,679.754597 163.514698,682.469657 163.336653,685.867662 L161.492309,685.867662 C161.675222,681.452558 165.21266,677.91512 169.627764,677.732208 L169.627764,679.576551 Z M183.902713,680.587966 C184.582593,682.267243 184.950696,684.05638 184.988976,685.867662 L181.632309,685.867662 C181.595009,684.519255 181.322214,683.187756 180.826249,681.933319 C180.803218,681.871905 180.778269,681.81241 180.753319,681.750996 C178.906719,677.289398 174.502106,674.426729 169.675062,674.550955 C164.848017,674.675182 160.596482,677.760622 158.981818,682.311297 C157.367153,686.861973 158.723173,691.937079 162.39241,695.075945 L154.949784,702.560794 L152.055643,705.454935 L149.683521,703.082814 L152.577663,700.188673 L157.769077,694.968471 L157.609784,694.734329 C155.867944,692.232447 154.936716,689.255866 154.942107,686.207359 C154.942305,679.405783 159.512046,673.452819 166.082509,671.694849 C172.652971,669.936879 179.58486,672.812509 182.981501,678.705238 L183.442107,679.645642 L183.902713,680.587966 Z M179.647865,691.345036 L182.021905,693.717157 L170.04039,705.696753 L163.933521,699.589885 L166.305643,697.217764 L170.04039,700.952511 L179.647865,691.345036 Z M209.591097,705.735137 L205.426451,705.735137 L204.466855,698.666753 C204.384969,698.03342 204.325474,697.478774 204.28837,697.002814 C204.236552,696.534531 204.182814,695.868572 204.130996,695.004935 C203.973858,695.87938 203.765589,696.74386 203.507259,697.593925 C203.447764,697.785844 203.401703,697.941299 203.372915,698.075642 L201.150491,705.735137 L198.179582,705.735137 L195.959077,698.075642 C195.926302,697.911961 195.881397,697.750944 195.824734,697.593925 C195.548791,696.749393 195.343373,695.883427 195.210592,695.004935 C195.151097,695.82443 195.095441,696.432814 195.043622,696.835844 C195.020592,697.043117 194.987966,697.348269 194.941905,697.751299 C194.895845,698.154329 194.865138,698.457561 194.842107,698.666753 L193.882511,705.735137 L189.740895,705.735137 L192.262713,689.38746 L196.676855,689.38746 L199.144936,697.818471 C199.189077,697.973925 199.219784,698.075642 199.233218,698.119784 C199.433139,698.745855 199.578894,699.387948 199.668875,700.038976 C199.705255,699.708321 199.761655,699.380176 199.837764,699.056349 C199.867191,698.943757 199.978505,698.522814 200.171703,697.793521 L202.666653,689.385541 L207.080794,689.385541 L209.591097,705.735137 Z M214.897663,705.735137 L214.897663,698.275238 L209.178471,689.38746 L214.293117,689.38746 L216.492511,693.598168 C216.523308,693.637516 216.546125,693.682499 216.559683,693.730592 C216.777092,694.123325 216.938584,694.544497 217.039481,694.981905 C217.132662,694.556691 217.294732,694.149571 217.519279,693.776652 L217.607562,693.598168 L219.785845,689.38746 L224.910087,689.38746 L219.192814,698.275238 L219.192814,705.735137 L214.897663,705.735137 Z M232.792208,705.735137 L232.792208,689.38746 L237.455845,689.38746 C238.357865,689.38746 239.119784,689.406013 239.741602,689.443117 C240.257449,689.468799 240.770659,689.532951 241.276956,689.635036 C241.94582,689.789161 242.576081,690.078494 243.128976,690.485238 C243.720298,690.929438 244.183751,691.521996 244.47241,692.202915 C244.802576,692.91628 244.967251,693.69504 244.954127,694.480996 C244.954127,695.739986 244.641299,696.771232 244.015643,697.574733 C243.389986,698.378235 242.485407,698.902814 241.301905,699.148471 L245.758269,705.737056 L240.731905,705.737056 L236.979885,699.338471 L236.979885,705.737056 L232.792208,705.735137 Z M236.979885,697.114127 L237.807057,697.114127 C238.782006,697.114127 239.48571,696.954194 239.918168,696.634329 C240.357023,696.277359 240.576451,695.759817 240.576451,695.081703 C240.576451,694.264127 240.371737,693.683891 239.962309,693.340996 C239.552882,692.9981 238.856855,692.822814 237.874228,692.815137 L236.981804,692.815137 L236.979885,697.114127 Z M247.575744,705.735137 L247.575744,689.38746 L252.074329,689.38746 L252.074329,705.735137 L247.575744,705.735137 Z M255.670895,705.735137 L255.670895,689.38746 L259.075542,689.38746 C261.651097,689.38746 263.44874,689.50709 264.468471,689.746349 C265.461776,689.956217 266.403262,690.362041 267.237865,690.940087 C268.260438,691.631992 269.075199,692.589402 269.594633,693.709481 C270.664283,696.173977 270.664283,698.971651 269.594633,701.436147 C269.067558,702.550794 268.254331,703.505739 267.237865,704.203622 C266.419871,704.758239 265.502251,705.14927 264.535643,705.355137 C263.553016,705.600794 261.982478,705.724262 259.824026,705.725541 L255.670895,705.725541 L255.670895,705.735137 Z M260.085037,702.0714 L260.833521,702.0714 C262.590222,702.0714 263.866484,701.707393 264.662309,700.97938 C265.458134,700.251366 265.859885,699.117764 265.867562,697.578572 C265.867562,696.031703 265.465811,694.890423 264.662309,694.154733 C263.858808,693.419043 262.581266,693.051198 260.829683,693.051198 L260.081198,693.051198 L260.085037,702.0714 Z M273.189279,705.735137 L273.189279,689.38746 L283.203622,689.38746 L283.203622,692.984026 L277.53241,692.984026 L277.53241,695.809077 L282.881198,695.809077 L282.881198,699.325036 L277.53241,699.325036 L277.53241,702.0714 L283.203622,702.0714 L283.203622,705.735137 L273.189279,705.735137 Z M193.817259,673.154935 L193.817259,684.670087 L191.811703,684.670087 L191.811703,673.154935 L193.817259,673.154935 Z M204.937057,673.154935 L206.944532,673.154935 L206.944532,684.670087 L205.253723,684.670087 L198.92039,676.477056 L198.92039,684.670087 L196.910996,684.670087 L196.910996,673.154935 L198.776451,673.154935 L204.931299,681.115743 L204.937057,673.154935 Z M211.713723,676.757258 C211.811601,676.945189 211.95722,677.104046 212.135946,677.217865 C212.396434,677.388037 212.679353,677.5211 212.976552,677.613218 C213.333521,677.732208 213.78709,677.860154 214.337259,677.997056 C214.884017,678.131599 215.421283,678.302139 215.945542,678.507561 C216.364929,678.668364 216.754218,678.898694 217.097057,679.188875 C217.396722,679.446392 217.635904,679.766831 217.797562,680.127359 C217.966331,680.524458 218.04813,680.953087 218.037461,681.38443 C218.047013,681.888864 217.944083,682.389091 217.736148,682.848774 C217.54071,683.269171 217.253456,683.640372 216.895542,683.935036 C216.513071,684.242788 216.073434,684.471739 215.602006,684.608673 C215.063099,684.767235 214.503624,684.844851 213.941905,684.838976 C213.071364,684.842837 212.207286,684.689397 211.391299,684.386046 C210.558283,684.069796 209.793962,683.596086 209.140087,682.990794 L210.356855,681.543723 C210.86583,681.992563 211.436516,682.366126 212.051501,682.653016 C212.663834,682.918949 213.326264,683.049864 213.993723,683.036854 C214.518693,683.06418 215.038981,682.925884 215.481097,682.641501 C215.836397,682.403471 216.044999,682.000028 216.033824,681.572511 C216.036778,681.38094 216.000191,681.190818 215.92635,681.014026 C215.83791,680.829512 215.700487,680.672836 215.529077,680.561097 C215.283604,680.398813 215.017725,680.269745 214.73837,680.177258 C214.308373,680.026709 213.870847,679.89859 213.427562,679.79342 C212.871532,679.667069 212.323579,679.50749 211.786653,679.315541 C211.351543,679.163644 210.944363,678.941251 210.5814,678.657258 C210.263292,678.399265 210.009655,678.070719 209.840592,677.697662 C209.658606,677.266391 209.571552,676.80101 209.58534,676.333117 C209.57868,675.858821 209.679048,675.389127 209.878976,674.958976 C210.071253,674.553193 210.34574,674.191785 210.685037,673.897662 C211.048362,673.590213 211.469126,673.357977 211.922915,673.21443 C212.432788,673.051781 212.965328,672.971446 213.500491,672.97645 C214.27566,672.965876 215.046684,673.091241 215.778572,673.346854 C216.465414,673.601407 217.106429,673.965664 217.676653,674.42544 L216.592309,675.960794 C216.110892,675.602313 215.585965,675.306316 215.030087,675.079885 C214.532803,674.879803 214.001969,674.776242 213.465946,674.774733 C212.972656,674.745805 212.484518,674.888179 212.084127,675.177764 C211.775193,675.408518 211.592554,675.770954 211.590895,676.156551 C211.586855,676.363412 211.628808,676.568587 211.713723,676.757258 Z M228.984532,678.732107 C228.752899,679.212534 228.41489,679.633897 227.996148,679.964228 C227.558451,680.304262 227.060262,680.55824 226.527966,680.712713 C225.945155,680.886435 225.339737,680.972462 224.731602,680.967966 L222.440087,680.967966 L222.440087,684.670087 L220.432612,684.670087 L220.432612,673.154935 L224.97342,673.154935 C225.589839,673.147059 226.203509,673.238429 226.790895,673.425541 C227.300784,673.587981 227.771342,673.854631 228.172713,674.208572 C228.548571,674.545621 228.845987,674.960956 229.044026,675.425339 C229.253645,675.930463 229.356871,676.473381 229.347259,677.020188 C229.360193,677.611184 229.236038,678.197142 228.984532,678.732107 Z M226.614329,675.500188 C226.163959,675.154733 225.558774,674.981366 224.798774,674.980087 L222.440087,674.980087 L222.440087,679.142814 L224.798774,679.142814 C225.566451,679.142814 226.174835,678.950895 226.623925,678.567056 C227.067102,678.192352 227.313382,677.634685 227.291804,677.054733 C227.291804,676.366383 227.065979,675.848201 226.614329,675.500188 Z M239.941198,674.980087 L233.427461,674.980087 L233.427461,677.9414 L239.20039,677.9414 L239.20039,679.766551 L233.427461,679.766551 L233.427461,682.837258 L240.023723,682.837258 L240.023723,684.664329 L231.419986,684.664329 L231.419986,673.149178 L239.941198,673.149178 L239.941198,674.980087 Z M251.529279,683.674026 C251.203975,683.922652 250.85415,684.137435 250.485239,684.315036 C250.095085,684.502758 249.683152,684.641358 249.258875,684.727662 C248.774188,684.823734 248.280954,684.870035 247.786855,684.865844 C246.985615,684.87723 246.190595,684.723713 245.451198,684.414834 C244.757577,684.122022 244.128788,683.694785 243.601097,683.157764 C243.074047,682.615333 242.658101,681.975115 242.376653,681.273117 C242.07606,680.531428 241.924753,679.73772 241.9314,678.93746 C241.926407,678.143861 242.074321,677.356729 242.367057,676.619077 C242.931718,675.184581 244.049295,674.037267 245.468471,673.435137 C246.228297,673.116392 247.045464,672.957008 247.86938,672.966854 C248.352396,672.962825 248.834601,673.007188 249.308774,673.099279 C249.71866,673.179299 250.118838,673.302826 250.502511,673.467764 C250.855206,673.625026 251.190892,673.817949 251.504329,674.043521 C251.812508,674.263282 252.10435,674.505094 252.377562,674.767056 L251.078269,676.264026 C250.640399,675.852552 250.147593,675.503777 249.613925,675.227662 C249.067109,674.957915 248.463655,674.823009 247.854026,674.834228 C247.329391,674.828533 246.809887,674.937936 246.332107,675.154733 C245.875052,675.361716 245.463971,675.657955 245.123016,676.026046 C244.778563,676.401522 244.510054,676.84013 244.332309,677.317662 C244.143452,677.827964 244.049152,678.368405 244.054026,678.912511 C244.049644,679.459701 244.143912,680.003202 244.332309,680.516955 C244.509896,680.999157 244.778313,681.442827 245.123016,681.823925 C245.462512,682.1961 245.873791,682.495746 246.332107,682.704834 C246.810177,682.920745 247.329483,683.030107 247.854026,683.025339 C248.480679,683.042251 249.101774,682.903791 249.661905,682.622309 C250.20656,682.324653 250.709839,681.956872 251.158875,681.52837 L252.460087,682.844935 C252.172929,683.146202 251.861623,683.423489 251.529279,683.674026 Z M259.449784,684.670087 L257.411602,684.670087 L257.411602,675.029986 L253.765138,675.029986 L253.765138,673.154935 L263.107764,673.154935 L263.107764,675.029986 L259.461299,675.029986 L259.449784,684.670087 Z" id="Combined-Shape"></path>
        </g>
    </g>
</svg>