<?xml version="1.0" encoding="UTF-8"?>
<svg width="193px" height="48px" viewBox="0 0 193 48" version="1.1" xmlns="http://www.w3.org/2000/svg" xmlns:xlink="http://www.w3.org/1999/xlink">
    <!-- Generator: Sketch 54.1 (76490) - https://sketchapp.com -->
    <title>Combined Shape</title>
    <desc>Created with Sketch.</desc>
    <g id="Onboarding" stroke="none" stroke-width="1" fill="none" fill-rule="evenodd">
        <g id="Sign-In-" transform="translate(-111.000000, -142.000000)" fill="#FFFFFF">
            <path d="M161.033974,143.223574 C163.126705,143.551322 164.869837,145.022545 165.775393,145.9281 C157.774834,143.63508 149.193064,146.572722 144.276015,153.287594 C139.358966,160.002466 139.149296,169.070683 143.75074,176.005637 L134.008134,185.748244 C131.043027,185.652752 128.073066,185.517607 125.098249,185.342808 L125.098249,187.756003 C125.05609,188.829887 124.195883,189.691151 123.122051,189.734628 L114.093206,189.734628 C113.006322,189.721501 112.128801,188.842902 112.117008,187.756003 C112.117008,181.65261 112.117008,175.63419 112.20198,169.615769 C112.289379,162.395606 115.297376,160.247037 115.98686,159.557553 L112.289379,159.557553 C111.945477,159.56422 111.613691,159.430542 111.37047,159.187321 C111.127249,158.944099 110.993571,158.612314 111.000238,158.268412 L111.000238,156.634528 C111.000238,155.947472 111.859665,155.345387 112.546722,155.260415 L118.822485,154.313588 L123.034652,146.576312 C123.379394,146.061627 125.527963,143.653288 128.278616,143.223574 C139.136127,141.592142 150.176464,141.592142 161.033974,143.223574 Z M130.771927,177.088419 C130.859327,176.321246 130.859327,175.721589 130.696667,175.192337 C130.094582,174.160538 129.407525,173.38851 128.460699,172.871397 C124.505875,172.011969 120.378681,171.494856 116.338885,170.635429 C116.166514,170.980171 116.166514,171.667227 116.253914,172.526655 C116.861083,173.746681 117.899108,174.698204 119.167228,175.197192 C123.034652,175.799277 126.904503,176.486334 130.771927,177.088419 Z M159.863793,156.644239 C155.565345,156.869465 152.130817,160.303993 151.905591,164.602441 L149.572512,164.602441 C149.803895,159.017372 154.278724,154.542543 159.863793,154.31116 L159.863793,156.644239 Z M177.921483,157.92367 C178.781525,160.047941 179.247173,162.311185 179.295596,164.602441 L175.049441,164.602441 C175.002257,162.896718 174.657174,161.212382 174.029782,159.62553 C174.000648,159.547842 173.969088,159.472581 173.937527,159.394893 C171.601592,153.75101 166.029795,150.129757 159.923625,150.286903 C153.817455,150.444048 148.439299,154.347104 146.396762,160.10367 C144.354224,165.860235 146.069578,172.280201 150.711133,176.250841 L141.296273,185.719111 L137.635209,189.380175 L134.634496,186.379462 L138.29556,182.718398 L144.862655,176.114886 L144.661151,175.818699 C142.457738,172.653839 141.279742,168.88849 141.286562,165.032155 C141.286813,156.428219 147.067496,148.897769 155.379076,146.673953 C163.690655,144.450136 172.459435,148.087782 176.756158,155.542035 L177.33882,156.731639 L177.921483,157.92367 Z M172.539136,171.531273 L175.542277,174.531986 L160.385762,189.686073 L152.660625,181.960936 L155.661338,178.960223 L160.385762,183.684647 L172.539136,171.531273 Z M210.417071,189.734628 L205.148828,189.734628 L203.934948,180.793183 C203.831363,179.992021 203.756102,179.290398 203.709166,178.688313 C203.643616,178.09594 203.575639,177.253506 203.510089,176.161014 C203.311311,177.267179 203.047852,178.360738 202.721067,179.436064 C202.645806,179.67884 202.58754,179.875489 202.551123,180.045432 L199.739776,189.734628 L195.981601,189.734628 L193.172681,180.045432 C193.131221,179.838377 193.074416,179.634692 193.002738,179.436064 C192.653673,178.367738 192.393821,177.272299 192.225854,176.161014 C192.150593,177.197668 192.080188,177.967268 192.014639,178.477098 C191.985506,178.739296 191.944234,179.125311 191.885967,179.63514 C191.827701,180.14497 191.788857,180.528557 191.759724,180.793183 L190.545843,189.734628 L185.306734,189.734628 L188.496812,169.054956 L194.080664,169.054956 L197.202765,179.720112 C197.258603,179.916761 197.297448,180.045432 197.314442,180.101271 C197.56734,180.893246 197.751718,181.705487 197.865544,182.529032 C197.911564,182.110756 197.98291,181.695656 198.079187,181.286018 C198.116413,181.14359 198.257223,180.611101 198.501617,179.688551 L201.657707,169.052528 L207.241559,169.052528 L210.417071,189.734628 Z M217.129831,189.734628 L217.129831,180.297919 L209.895102,169.054956 L216.365086,169.054956 L219.147301,174.381465 C219.186258,174.43124 219.215122,174.488143 219.232273,174.54898 C219.507293,175.045784 219.71158,175.578564 219.839213,176.131881 C219.957087,175.593989 220.162104,175.078985 220.446153,174.607246 L220.55783,174.381465 L223.31334,169.054956 L229.795463,169.054956 L222.563161,180.297919 L222.563161,189.734628 L217.129831,189.734628 Z M239.766279,189.734628 L239.766279,169.054956 L245.66574,169.054956 C246.806788,169.054956 247.770609,169.078424 248.557204,169.125361 C249.209745,169.157849 249.858952,169.239 250.499413,169.368137 C251.34552,169.563104 252.142796,169.929107 252.842203,170.443635 C253.59022,171.005545 254.176484,171.755125 254.541636,172.616482 C254.959293,173.518883 255.167605,174.504007 255.151004,175.498235 C255.151004,177.090846 254.755279,178.395364 253.963828,179.411786 C253.172378,180.428209 252.028093,181.091797 250.530974,181.402551 L256.168236,189.737056 L249.809929,189.737056 L245.063655,181.642899 L245.063655,189.737056 L239.766279,189.734628 Z M245.063655,178.829124 L246.11002,178.829124 C247.343323,178.829124 248.233502,178.62681 248.780558,178.222183 C249.335706,177.77062 249.61328,177.115933 249.61328,176.258124 C249.61328,175.223898 249.354319,174.489905 248.836396,174.056145 C248.318474,173.622385 247.438006,173.400649 246.194992,173.390938 L245.066083,173.390938 L245.063655,178.829124 Z M258.467326,189.734628 L258.467326,169.054956 L264.157999,169.054956 L264.157999,189.734628 L258.467326,189.734628 Z M268.707624,189.734628 L268.707624,169.054956 L273.014473,169.054956 C276.272529,169.054956 278.546532,169.206286 279.836483,169.508947 C281.093004,169.774428 282.283977,170.287792 283.339742,171.019015 C284.633289,171.894269 285.663954,173.105384 286.321033,174.522275 C287.674133,177.639842 287.674133,181.178875 286.321033,184.296443 C285.654288,185.706461 284.625564,186.914458 283.339742,187.797275 C282.304987,188.49886 281.144206,188.993511 279.921454,189.253931 C278.67844,189.564685 276.691722,189.720871 273.9613,189.722489 L268.707624,189.722489 L268.707624,189.734628 Z M274.291475,185.100032 L275.238302,185.100032 C277.460513,185.100032 279.074975,184.639566 280.081686,183.718635 C281.088398,182.797704 281.59661,181.363707 281.606321,179.416642 C281.606321,177.459866 281.098109,176.016157 280.081686,175.085515 C279.065264,174.154874 277.449184,173.689553 275.233447,173.689553 L274.28662,173.689553 L274.291475,185.100032 Z M290.868231,189.734628 L290.868231,169.054956 L303.53629,169.054956 L303.53629,173.604581 L296.362255,173.604581 L296.362255,177.178246 L303.128426,177.178246 L303.128426,181.625905 L296.362255,181.625905 L296.362255,185.100032 L303.53629,185.100032 L303.53629,189.734628 L290.868231,189.734628 Z M190.463299,148.520949 L190.463299,163.087518 L187.926288,163.087518 L187.926288,148.520949 L190.463299,148.520949 Z M204.529749,148.520949 L207.069188,148.520949 L207.069188,163.087518 L204.93033,163.087518 L196.918717,152.723404 L196.918717,163.087518 L194.376851,163.087518 L194.376851,148.520949 L196.736635,148.520949 L204.522466,158.591304 L204.529749,148.520949 Z M213.102175,153.077858 C213.225989,153.315588 213.410196,153.51654 213.636282,153.66052 C213.965797,153.875787 214.323689,154.04411 214.699642,154.160639 C215.151206,154.31116 215.724967,154.473011 216.420925,154.646192 C217.112569,154.816386 217.792206,155.032118 218.455389,155.291976 C218.98591,155.49539 219.478358,155.786755 219.912046,156.153831 C220.29112,156.479589 220.593683,156.884941 220.798179,157.341007 C221.01167,157.843334 221.115146,158.385545 221.101649,158.931191 C221.113732,159.569295 220.983526,160.202079 220.72049,160.783573 C220.473264,161.315372 220.10989,161.784938 219.657131,162.157686 C219.173309,162.546989 218.617172,162.83661 218.02082,163.00983 C217.339107,163.210411 216.631376,163.308593 215.920806,163.301161 C214.819579,163.306046 213.726528,163.111945 212.694311,162.728209 C211.640552,162.328155 210.673693,161.728917 209.846547,160.963227 L211.385748,159.132695 C212.029597,159.700473 212.75151,160.173027 213.529461,160.535941 C214.304056,160.872343 215.142025,161.03795 215.986356,161.021493 C216.650438,161.056059 217.308598,160.881116 217.867871,160.521374 C218.317322,160.220269 218.581202,159.709917 218.567066,159.169111 C218.570803,158.926776 218.524521,158.686273 218.431111,158.462633 C218.319236,158.229224 218.145397,158.03103 217.928565,157.889681 C217.618044,157.684393 217.281709,157.521123 216.928327,157.404129 C216.384384,157.213684 215.830918,157.051615 215.270166,156.918576 C214.566793,156.758744 213.873637,156.556877 213.19443,156.314064 C212.644019,156.121915 212.12894,155.84059 211.669796,155.481341 C211.267392,155.154982 210.946542,154.739374 210.73268,154.267461 C210.502469,153.721906 210.392346,153.133203 210.409787,152.541322 C210.401363,151.941342 210.528328,151.347183 210.781235,150.803045 C211.024464,150.289734 211.371688,149.832555 211.800895,149.460493 C212.260498,149.071572 212.792761,148.777796 213.366801,148.59621 C214.011785,148.39046 214.685444,148.288837 215.362421,148.295167 C216.343003,148.281791 217.318342,148.440376 218.244174,148.763725 C219.113023,149.085733 219.923901,149.546515 220.64523,150.128127 L219.273545,152.070337 C218.664555,151.616861 218.000528,151.242428 217.297347,150.955994 C216.668287,150.702893 215.996787,150.571888 215.318721,150.56998 C214.694714,150.533386 214.077223,150.713488 213.570733,151.07981 C213.179934,151.371712 212.948896,151.830191 212.946798,152.317968 C212.941688,152.579645 212.994758,152.83919 213.102175,153.077858 Z M234.9496,155.576024 C234.656588,156.183761 234.229009,156.716781 233.699303,157.134647 C233.145621,157.564787 232.515416,157.886067 231.842066,158.081474 C231.104815,158.301231 230.338966,158.410054 229.569681,158.404366 L226.670934,158.404366 L226.670934,163.087518 L224.131495,163.087518 L224.131495,148.520949 L229.875579,148.520949 C230.655343,148.510986 231.43163,148.626568 232.174669,148.863264 C232.819674,149.068749 233.414926,149.406058 233.922657,149.85379 C234.398115,150.280155 234.774343,150.80555 235.024861,151.392991 C235.290027,152.031969 235.420607,152.718755 235.408447,153.410461 C235.424809,154.158066 235.267754,154.899297 234.9496,155.576024 Z M231.951315,151.487674 C231.3816,151.050677 230.616046,150.831369 229.654653,150.82975 L226.670934,150.82975 L226.670934,156.095565 L229.654653,156.095565 C230.625757,156.095565 231.395358,155.852789 231.963454,155.367237 C232.524069,154.893238 232.83561,154.187794 232.808315,153.454161 C232.808315,152.583404 232.522648,151.927908 231.951315,151.487674 Z M248.809691,150.82975 L240.569868,150.82975 L240.569868,154.575786 L247.872575,154.575786 L247.872575,156.884588 L240.569868,156.884588 L240.569868,160.769006 L248.914085,160.769006 L248.914085,163.080235 L238.03043,163.080235 L238.03043,148.513666 L248.809691,148.513666 L248.809691,150.82975 Z M263.468515,161.82751 C263.057008,162.14202 262.614482,162.413718 262.147812,162.638382 C261.654271,162.875848 261.133179,163.051176 260.596473,163.160351 C259.983348,163.28188 259.359411,163.34045 258.73438,163.33515 C257.720819,163.349553 256.715125,163.155355 255.779794,162.764626 C254.902369,162.394221 254.106957,161.85377 253.439432,161.174442 C252.772718,160.488272 252.246549,159.678401 251.89052,158.79038 C251.510273,157.85215 251.318871,156.848116 251.327279,155.835795 C251.320964,154.831898 251.508073,153.836182 251.878381,152.903059 C252.592673,151.088434 254.006398,149.637091 255.801644,148.875402 C256.762817,148.472192 257.796527,148.270573 258.838773,148.283029 C259.449785,148.277932 260.05977,148.334051 260.659595,148.450544 C261.178097,148.551769 261.684318,148.70803 262.169662,148.916674 C262.615819,149.115611 263.040458,149.359657 263.436954,149.645003 C263.826797,149.922999 264.195975,150.228889 264.541585,150.560269 L262.897991,152.453923 C262.34409,151.933412 261.720693,151.492214 261.045609,151.142932 C260.35389,150.801703 259.590526,150.631049 258.819351,150.645241 C258.155692,150.638036 257.498524,150.776431 256.894137,151.050677 C256.315965,151.312508 255.795952,151.687248 255.364647,152.15288 C254.928916,152.627854 254.589255,153.182689 254.364409,153.786764 C254.125507,154.432291 254.006217,155.115945 254.012384,155.804234 C254.00684,156.496424 254.126088,157.183949 254.364409,157.833842 C254.589055,158.443824 254.9286,159.005062 255.364647,159.487148 C255.794106,159.957946 256.314371,160.336996 256.894137,160.60149 C257.498891,160.874616 258.155809,161.012958 258.819351,161.006927 C259.612061,161.02832 260.397741,160.853169 261.106303,160.497097 C261.795286,160.120564 262.43193,159.655325 262.999957,159.113273 L264.645979,160.778717 C264.282727,161.159817 263.888927,161.510583 263.468515,161.82751 Z M273.487886,163.087518 L270.909604,163.087518 L270.909604,150.892872 L266.296857,150.892872 L266.296857,148.520949 L278.1152,148.520949 L278.1152,150.892872 L273.502453,150.892872 L273.487886,163.087518 Z" id="Combined-Shape"></path>
        </g>
    </g>
</svg>