<?xml version="1.0" encoding="UTF-8"?>
<svg width="118px" height="83px" viewBox="0 0 118 83" version="1.1" xmlns="http://www.w3.org/2000/svg" xmlns:xlink="http://www.w3.org/1999/xlink">
    <!-- Generator: Sketch 54.1 (76490) - https://sketchapp.com -->
    <title>Combined Shape</title>
    <desc>Created with Sketch.</desc>
    <g id="Onboarding" stroke="none" stroke-width="1" fill="none" fill-rule="evenodd">
        <g id="Splash-Screen" transform="translate(-148.000000, -327.000000)" fill="#FFFFFF" fill-rule="nonzero">
            <path d="M234.391673,329.112696 C238.005107,329.695373 241.014905,332.235676 242.578491,333.799262 C228.764245,329.839995 213.946445,334.912305 205.456372,346.506608 C196.966299,358.10091 196.604269,373.75864 204.5494,385.732949 L187.727229,402.55512 C182.604703,402.390238 177.476589,402.156888 172.342885,401.85507 L172.342885,406.021838 C172.27009,407.876072 170.784806,409.36318 168.930663,409.438252 L153.361875,409.438252 C151.484261,409.417805 149.967794,407.899475 149.949653,406.021838 C149.949653,395.483353 149.949653,385.091585 150.09637,374.699817 C150.22632,362.228858 155.420107,358.523201 156.610612,357.328504 L150.142481,357.328504 C149.563216,357.317493 149.012064,357.076765 148.610325,356.659303 C148.208586,356.24184 147.989185,355.681856 148.00041,355.102595 L148.00041,352.285625 C148.00041,351.099312 149.48435,350.072292 150.670663,349.912999 L161.506774,348.278151 L168.779754,334.918504 C169.379198,334.029817 173.084855,329.871433 177.834299,329.112696 C196.581531,326.295768 215.644441,326.295768 234.391673,329.112696 Z M182.1394,387.602545 C182.321984,386.513943 182.277743,385.399361 182.009451,384.328656 C180.969855,382.54709 179.783542,381.21406 178.148693,380.321181 C171.320057,378.837242 164.193794,377.944363 157.218441,376.460423 C156.920814,377.055676 156.920814,378.241989 157.071724,379.725928 C158.120422,381.832255 159.912629,383.475112 162.102027,384.33704 C168.779754,385.376635 175.461673,386.562949 182.1394,387.602545 Z M214.601623,366.043504 C215.001142,356.399987 222.727651,348.673478 232.371168,348.273959 L232.371168,352.302393 C224.949209,352.691282 219.018945,358.621545 218.630057,366.043504 L214.601623,366.043504 Z M263.550663,354.511534 C265.035124,358.179593 265.839118,362.087345 265.923289,366.043504 L258.591623,366.043504 C258.512654,363.098011 257.916724,360.189305 256.831017,357.45007 C256.780713,357.315928 256.726219,357.185979 256.671724,357.051838 C252.638359,347.306769 243.017757,341.054096 232.474476,341.325433 C221.931195,341.59677 212.644948,348.336021 209.11818,358.275654 C205.591412,368.215287 208.553245,379.300387 216.567633,386.156332 L200.31137,402.504817 L193.989956,408.826231 L188.808744,403.645019 L195.151118,397.323605 L206.469299,385.921585 L206.12137,385.410171 C199.288568,375.503365 198.429453,362.650343 203.882991,351.9223 C209.336529,341.194256 220.226925,334.31403 232.257345,333.996233 C244.287765,333.678435 255.526217,339.974102 261.538542,350.399262 L262.544602,352.453302 L263.550663,354.511534 Z M254.257178,378.007242 L259.442582,383.188454 L233.272431,409.354413 L219.933744,396.015726 L225.114956,390.834514 L233.272431,398.991989 L254.257178,378.007242 Z" id="Combined-Shape"></path>
        </g>
    </g>
</svg>