<?xml version="1.0" encoding="UTF-8"?>
<svg width="21px" height="28px" viewBox="0 0 21 28" version="1.1" xmlns="http://www.w3.org/2000/svg" xmlns:xlink="http://www.w3.org/1999/xlink">
    <!-- Generator: Sketch 54.1 (76490) - https://sketchapp.com -->
    <title>Shape</title>
    <desc>Created with Sketch.</desc>
    <g id="Subscription" stroke="none" stroke-width="1" fill="none" fill-rule="evenodd">
        <g id="iPhone-8-Plus-Copy-3" transform="translate(-196.000000, -821.000000)" fill="#4A4A4A">
            <path d="M214.375,830.333333 L213.0625,830.333333 L213.0625,827.666667 C213.0625,823.933333 210.175,821 206.5,821 C202.825,821 199.9375,823.933333 199.9375,827.666667 L199.9375,830.333333 L198.625,830.333333 C197.18125,830.333333 196,831.533333 196,833 L196,846.333333 C196,847.8 197.18125,849 198.625,849 L214.375,849 C215.81875,849 217,847.8 217,846.333333 L217,833 C217,831.533333 215.81875,830.333333 214.375,830.333333 L214.375,830.333333 Z M206.5,842.333333 C205.05625,842.333333 203.875,841.133333 203.875,839.666667 C203.875,838.2 205.05625,837 206.5,837 C207.94375,837 209.125,838.2 209.125,839.666667 C209.125,841.133333 207.94375,842.333333 206.5,842.333333 L206.5,842.333333 Z M210.56875,830.333333 L202.43125,830.333333 L202.43125,827.666667 C202.43125,825.4 204.26875,823.533333 206.5,823.533333 C208.73125,823.533333 210.56875,825.4 210.56875,827.666667 L210.56875,830.333333 L210.56875,830.333333 Z" id="Shape"></path>
        </g>
    </g>
</svg>