<?xml version="1.0" encoding="UTF-8"?>
<svg width="15px" height="20px" viewBox="0 0 15 20" version="1.1" xmlns="http://www.w3.org/2000/svg" xmlns:xlink="http://www.w3.org/1999/xlink">
    <!-- Generator: Sketch 54.1 (76490) - https://sketchapp.com -->
    <title>Icon</title>
    <desc>Created with Sketch.</desc>
    <g id="Subscription" stroke="none" stroke-width="1" fill="none" fill-rule="evenodd">
        <g id="iPhone-8-Plus-Copy-3" transform="translate(-41.000000, -369.000000)" fill="#16A085">
            <path d="M54.125,375.666667 L53.1875,375.666667 L53.1875,373.761905 C53.1875,371.133333 51.0875,369 48.5,369 C45.9125,369 43.8125,371.133333 43.8125,373.761905 L43.8125,375.666667 L42.875,375.666667 C41.84375,375.666667 41,376.52381 41,377.571429 L41,387.095238 C41,388.142857 41.84375,389 42.875,389 L54.125,389 C55.15625,389 56,388.142857 56,387.095238 L56,377.571429 C56,376.52381 55.15625,375.666667 54.125,375.666667 L54.125,375.666667 Z M48.5,384.238095 C47.46875,384.238095 46.625,383.380952 46.625,382.333333 C46.625,381.285714 47.46875,380.428571 48.5,380.428571 C49.53125,380.428571 50.375,381.285714 50.375,382.333333 C50.375,383.380952 49.53125,384.238095 48.5,384.238095 L48.5,384.238095 Z M51.40625,375.666667 L45.59375,375.666667 L45.59375,373.761905 C45.59375,372.133333 46.896875,370.809524 48.5,370.809524 C50.103125,370.809524 51.40625,372.133333 51.40625,373.761905 L51.40625,375.666667 L51.40625,375.666667 Z" id="Icon"></path>
        </g>
    </g>
</svg>