<?xml version="1.0" encoding="UTF-8"?>
<svg width="32px" height="24px" viewBox="0 0 32 24" version="1.1" xmlns="http://www.w3.org/2000/svg" xmlns:xlink="http://www.w3.org/1999/xlink">
    <!-- Generator: Sketch 54.1 (76490) - https://sketchapp.com -->
    <title>Combined Shape</title>
    <desc>Created with Sketch.</desc>
    <g id="App-Pages" stroke="none" stroke-width="1" fill="none" fill-rule="evenodd">
        <g id="iPhone-8-Plus-Copy-3" transform="translate(-358.000000, -48.000000)" fill="#FFFFFF">
            <path d="M368,49.7110046 C368,48.7660429 368.75729,48 369.707997,48 L388.292003,48 C389.235304,48 390,48.7594548 390,49.7110046 C390,50.6559664 389.24271,51.4220092 388.292003,51.4220092 L369.707997,51.4220092 C368.764696,51.4220092 368,50.6625545 368,49.7110046 Z M358,59.7110046 C358,58.7660429 358.759453,58 359.720459,58 L388.279541,58 C389.229724,58 390,58.7594548 390,59.7110046 C390,60.6559664 389.240547,61.4220092 388.279541,61.4220092 L359.720459,61.4220092 C358.770276,61.4220092 358,60.6625545 358,59.7110046 Z M358,69.7110046 C358,68.7660429 358.759453,68 359.720459,68 L388.279541,68 C389.229724,68 390,68.7594548 390,69.7110046 C390,70.6559664 389.240547,71.4220092 388.279541,71.4220092 L359.720459,71.4220092 C358.770276,71.4220092 358,70.6625545 358,69.7110046 Z" id="Combined-Shape"></path>
        </g>
    </g>
</svg>