<?xml version="1.0" encoding="UTF-8"?>
<svg width="53px" height="53px" viewBox="0 0 53 53" version="1.1" xmlns="http://www.w3.org/2000/svg" xmlns:xlink="http://www.w3.org/1999/xlink">
    <!-- Generator: Sketch 54.1 (76490) - https://sketchapp.com -->
    <title>Group</title>
    <desc>Created with Sketch.</desc>
    <g id="Profile" stroke="none" stroke-width="1" fill="none" fill-rule="evenodd">
        <g id="Side-Menu" transform="translate(-31.000000, -439.000000)" fill-rule="nonzero">
            <g id="Group-2" transform="translate(15.000000, 429.000000)">
                <g id="Group" transform="translate(16.000000, 10.000000)">
                    <rect id="Rectangle" fill="#2196F3" x="0" y="0" width="52.5" height="52.5" rx="26.25"></rect>
                    <path d="M29.705848,22.6399399 C34.9144591,23.9389637 38.7910448,28.3582101 39,34 C39,36.25 36.5,36.25 36.5,34.25 C36.25,28.75 31.75,24.75 26.5,24.75 C21,24.75 16.75,28.75 16.5,34.25 C16.5,36.25 14,36 14,34 C14.4159502,28.3846729 18.292191,23.9804475 23.3258289,22.6584248 C21.4729944,21.5845966 20.25,19.5840703 20.25,17.25 C20.25,13.75 23,11 26.5,11 C30,11 32.75,13.75 32.75,17.25 C32.75,19.5707429 31.5409321,21.5617401 29.705848,22.6399399 Z M26.5,13.5 C24.5,13.5 22.75,15.25 22.75,17.25 C22.75,19.25 24.5,21 26.5,21 C28.5,21 30.25,19.25 30.25,17.25 C30.25,15.25 28.5,13.5 26.5,13.5 Z M29.3240673,29.575175 C30.0434167,28.8352144 31.1693548,29.9612414 30.4187294,30.701202 L25.9149769,35.366171 C25.6022163,35.6557208 25.1330754,35.6557208 24.8203148,35.366171 L22.5684386,33.0176004 C21.8490892,32.2776398 22.9437513,31.1516128 23.6631006,31.8915734 L25.3832839,33.6610444 L29.3240673,29.575175 Z" id="Combined-Shape" fill="#FFFFFF"></path>
                </g>
            </g>
        </g>
    </g>
</svg>