<?xml version="1.0" encoding="UTF-8"?>
<svg width="137px" height="26px" viewBox="0 0 137 26" version="1.1" xmlns="http://www.w3.org/2000/svg" xmlns:xlink="http://www.w3.org/1999/xlink">
    <!-- Generator: Sketch 54.1 (76490) - https://sketchapp.com -->
    <title>Premium</title>
    <desc>Created with Sketch.</desc>
    <defs>
        <linearGradient x1="-22.5357046%" y1="46.8522674%" x2="123.236263%" y2="53.5584502%" id="linearGradient-1">
            <stop stop-color="#FFCD2C" offset="0%"></stop>
            <stop stop-color="#FF0663" offset="100%"></stop>
        </linearGradient>
    </defs>
    <g id="Profile" stroke="none" stroke-width="1" fill="none" fill-rule="evenodd">
        <g id="Subscription" transform="translate(-42.000000, -269.000000)" fill="url(#linearGradient-1)" fill-rule="nonzero">
            <g id="Group-2" transform="translate(20.000000, 207.000000)">
                <path d="M22.44,63.0839024 L31.2636856,63.0839024 C32.4938634,63.0839024 33.6569232,63.1957351 34.7528997,63.4194038 C35.8488763,63.6430725 36.8050456,64.0288952 37.6214363,64.5768835 C38.437827,65.1248718 39.0864565,65.8629674 39.5673442,66.7911924 C40.0482319,67.7194175 40.2886721,68.8880688 40.2886721,70.2971816 C40.2886721,71.6839274 40.0650068,72.8469872 39.6176694,73.7863957 C39.170332,74.7258042 38.5552523,75.475083 37.7724119,76.0342547 C36.9895715,76.5934265 36.0613604,76.9904324 34.9877507,77.2252846 C33.914141,77.4601367 32.7510812,77.577561 31.4985366,77.577561 L27.6738211,77.577561 L27.6738211,86.8373984 L22.44,86.8373984 L22.44,63.0839024 Z M27.6738211,73.1489431 L31.1630352,73.1489431 C31.6327395,73.1489431 32.0856618,73.10421 32.5218157,73.0147425 C32.9579697,72.9252751 33.349384,72.774301 33.6960705,72.5618157 C34.0427569,72.3493305 34.3223386,72.0585655 34.5348238,71.6895122 C34.7473091,71.3204589 34.8535501,70.8563533 34.8535501,70.2971816 C34.8535501,69.6932761 34.7137593,69.206804 34.4341734,68.8377507 C34.1545876,68.4686973 33.796723,68.183524 33.3605691,67.9822222 C32.9244152,67.7809204 32.4379431,67.6523128 31.9011382,67.5963957 C31.3643334,67.5404785 30.8499031,67.5125203 30.357832,67.5125203 L27.6738211,67.5125203 L27.6738211,73.1489431 Z M42.9391328,70.5320325 L47.9716531,70.5320325 L47.9716531,73.1489431 L48.0387534,73.1489431 C48.5755582,72.142434 49.2130044,71.3875635 49.9511111,70.8843089 C50.6892178,70.3810544 51.6174289,70.1294309 52.7357724,70.1294309 C53.0265417,70.1294309 53.3173066,70.1406142 53.6080759,70.162981 C53.8988452,70.1853479 54.1672436,70.230081 54.4132791,70.2971816 L54.4132791,74.8935501 C54.0554092,74.7817158 53.7031363,74.6978413 53.3564499,74.6419241 C53.0097634,74.5860069 52.6463072,74.5580488 52.2660705,74.5580488 C51.3042951,74.5580488 50.543833,74.692248 49.9846612,74.9606504 C49.4254895,75.2290528 48.9949338,75.6036923 48.692981,76.0845799 C48.3910283,76.5654676 48.1953211,77.1414059 48.1058537,77.8124119 C48.0163862,78.483418 47.9716531,79.2215136 47.9716531,80.0267209 L47.9716531,86.8373984 L42.9391328,86.8373984 L42.9391328,70.5320325 Z M72.0271003,84.019187 C71.221893,85.048063 70.2042157,85.8420749 68.9740379,86.4012466 C67.7438602,86.9604183 66.4689678,87.24 65.1493225,87.24 C63.8967778,87.24 62.7169432,87.0387012 61.6097832,86.6360976 C60.5026232,86.2334939 59.5408623,85.6575557 58.7244715,84.9082656 C57.9080808,84.1589755 57.265043,83.2587225 56.7953388,82.2074797 C56.3256345,81.1562368 56.0907859,79.9819938 56.0907859,78.6847154 C56.0907859,77.3874371 56.3256345,76.2131941 56.7953388,75.1619512 C57.265043,74.1107084 57.9080808,73.2104554 58.7244715,72.4611653 C59.5408623,71.7118752 60.5026232,71.135937 61.6097832,70.7333333 C62.7169432,70.3307297 63.8967778,70.1294309 65.1493225,70.1294309 C66.3123997,70.1294309 67.3692184,70.3307297 68.3198103,70.7333333 C69.2704022,71.135937 70.0755974,71.7118752 70.7354201,72.4611653 C71.3952427,73.2104554 71.9040813,74.1107084 72.2619512,75.1619512 C72.6198211,76.2131941 72.7987534,77.3874371 72.7987534,78.6847154 L72.7987534,80.2615718 L61.1233062,80.2615718 C61.3246081,81.2233472 61.7607555,81.9894009 62.4317615,82.5597561 C63.1027676,83.1301113 63.9303293,83.4152846 64.9144715,83.4152846 C65.7420457,83.4152846 66.4409999,83.2307607 67.011355,82.8617073 C67.5817102,82.492654 68.0793655,82.0173651 68.504336,81.4358266 L72.0271003,84.019187 Z M67.7662331,76.839458 C67.7885999,75.989517 67.5090183,75.2626046 66.9274797,74.6586992 C66.3459411,74.0547937 65.5966622,73.7528455 64.6796206,73.7528455 C64.1204489,73.7528455 63.6283851,73.8423117 63.2034146,74.0212466 C62.7784441,74.2001816 62.414988,74.4294385 62.1130352,74.7090244 C61.8110825,74.9886103 61.5762339,75.312925 61.4084824,75.6819783 C61.2407309,76.0510317 61.1456731,76.4368544 61.1233062,76.839458 L67.7662331,76.839458 Z M75.8518157,70.5320325 L80.6830352,70.5320325 L80.6830352,72.7463415 L80.7501355,72.7463415 C80.9067036,72.4332053 81.1303689,72.1200738 81.4211382,71.8069377 C81.7119075,71.4938015 82.0585888,71.2142198 82.4611924,70.9681843 C82.8637961,70.7221487 83.32231,70.5208499 83.836748,70.3642818 C84.351186,70.2077138 84.9103493,70.1294309 85.5142547,70.1294309 C86.6549651,70.1294309 87.6670507,70.3642795 88.550542,70.8339837 C89.4340333,71.303688 90.0994377,72.0417836 90.5467751,73.0482927 C91.1283137,71.9970498 91.8328595,71.247771 92.6604336,70.8004336 C93.4880078,70.3530962 94.505685,70.1294309 95.7134959,70.1294309 C96.8094725,70.1294309 97.732092,70.3139548 98.4813821,70.6830081 C99.2306722,71.0520615 99.8233854,71.5553085 100.259539,72.1927642 C100.695693,72.83022 101.008825,73.5794989 101.198943,74.4406233 C101.389061,75.3017478 101.484119,76.2243673 101.484119,77.2085095 L101.484119,86.8373984 L96.4515989,86.8373984 L96.4515989,77.34271 C96.4515989,76.5822365 96.2894415,75.9280154 95.965122,75.3800271 C95.6408024,74.8320388 95.0648641,74.5580488 94.23729,74.5580488 C93.6557514,74.5580488 93.1692793,74.6531065 92.7778591,74.8432249 C92.3864389,75.0333433 92.0733074,75.2961501 91.8384553,75.6316531 C91.6036032,75.9671561 91.4358542,76.3585705 91.3352033,76.8059079 C91.2345523,77.2532452 91.1842276,77.7229424 91.1842276,78.2150136 L91.1842276,86.8373984 L86.1517073,86.8373984 L86.1517073,78.2150136 C86.1517073,77.9242443 86.1405241,77.5663797 86.1181572,77.1414092 C86.0957903,76.7164387 86.0175074,76.3138411 85.8833062,75.9336043 C85.749105,75.5533676 85.5310313,75.2290528 85.2290786,74.9606504 C84.9271259,74.692248 84.4853868,74.5580488 83.9038482,74.5580488 C83.255209,74.5580488 82.7295955,74.6754731 82.3269919,74.9103252 C81.9243882,75.1451773 81.6168484,75.4583088 81.4043631,75.849729 C81.1918779,76.2411492 81.0520871,76.6828882 80.9849864,77.1749593 C80.9178858,77.6670305 80.884336,78.1814607 80.884336,78.7182656 L80.884336,86.8373984 L75.8518157,86.8373984 L75.8518157,70.5320325 Z M105.107534,70.5320325 L110.140054,70.5320325 L110.140054,86.8373984 L105.107534,86.8373984 L105.107534,70.5320325 Z M104.704932,65.3988618 C104.704932,64.5936545 104.990106,63.9058836 105.560461,63.3355285 C106.130816,62.7651733 106.818587,62.48 107.623794,62.48 C108.429001,62.48 109.116772,62.7651733 109.687127,63.3355285 C110.257483,63.9058836 110.542656,64.5936545 110.542656,65.3988618 C110.542656,66.2040691 110.257483,66.89184 109.687127,67.4621951 C109.116772,68.0325503 108.429001,68.3177236 107.623794,68.3177236 C106.818587,68.3177236 106.130816,68.0325503 105.560461,67.4621951 C104.990106,66.89184 104.704932,66.2040691 104.704932,65.3988618 Z M129.464932,86.8373984 L124.633713,86.8373984 L124.633713,84.6230894 L124.566612,84.6230894 C124.387678,84.9362256 124.158421,85.2493571 123.878835,85.5624932 C123.599249,85.8756294 123.258159,86.1552111 122.855556,86.4012466 C122.452952,86.6472822 121.994438,86.848581 121.48,87.0051491 C120.965562,87.1617171 120.406399,87.24 119.802493,87.24 C118.527582,87.24 117.49313,87.0442928 116.699106,86.6528726 C115.905082,86.2614524 115.290002,85.719064 114.853848,85.0256911 C114.417694,84.3323181 114.126929,83.5159397 113.981545,82.5765312 C113.83616,81.6371227 113.763469,80.6194454 113.763469,79.5234688 L113.763469,70.5320325 L118.795989,70.5320325 L118.795989,78.5169648 C118.795989,78.986669 118.812764,79.4731411 118.846314,79.9763957 C118.879865,80.4796502 118.980514,80.9437558 119.148266,81.3687263 C119.316017,81.7936968 119.573232,82.1403781 119.919919,82.4087805 C120.266605,82.6771829 120.764261,82.8113821 121.4129,82.8113821 C122.061539,82.8113821 122.587152,82.6939578 122.989756,82.4591057 C123.39236,82.2242536 123.6999,81.9111221 123.912385,81.5197019 C124.12487,81.1282817 124.264661,80.6865427 124.331762,80.1944715 C124.398862,79.7024004 124.432412,79.1879702 124.432412,78.6511653 L124.432412,70.5320325 L129.464932,70.5320325 L129.464932,86.8373984 Z M133.021247,70.5320325 L137.852466,70.5320325 L137.852466,72.7463415 L137.919566,72.7463415 C138.076134,72.4332053 138.2998,72.1200738 138.590569,71.8069377 C138.881338,71.4938015 139.22802,71.2142198 139.630623,70.9681843 C140.033227,70.7221487 140.491741,70.5208499 141.006179,70.3642818 C141.520617,70.2077138 142.07978,70.1294309 142.683686,70.1294309 C143.824396,70.1294309 144.836482,70.3642795 145.719973,70.8339837 C146.603464,71.303688 147.268869,72.0417836 147.716206,73.0482927 C148.297745,71.9970498 149.00229,71.247771 149.829864,70.8004336 C150.657439,70.3530962 151.675116,70.1294309 152.882927,70.1294309 C153.978903,70.1294309 154.901523,70.3139548 155.650813,70.6830081 C156.400103,71.0520615 156.992816,71.5553085 157.42897,72.1927642 C157.865124,72.83022 158.178256,73.5794989 158.368374,74.4406233 C158.558492,75.3017478 158.65355,76.2243673 158.65355,77.2085095 L158.65355,86.8373984 L153.62103,86.8373984 L153.62103,77.34271 C153.62103,76.5822365 153.458872,75.9280154 153.134553,75.3800271 C152.810233,74.8320388 152.234295,74.5580488 151.406721,74.5580488 C150.825182,74.5580488 150.33871,74.6531065 149.94729,74.8432249 C149.55587,75.0333433 149.242738,75.2961501 149.007886,75.6316531 C148.773034,75.9671561 148.605285,76.3585705 148.504634,76.8059079 C148.403983,77.2532452 148.353659,77.7229424 148.353659,78.2150136 L148.353659,86.8373984 L143.321138,86.8373984 L143.321138,78.2150136 C143.321138,77.9242443 143.309955,77.5663797 143.287588,77.1414092 C143.265221,76.7164387 143.186938,76.3138411 143.052737,75.9336043 C142.918536,75.5533676 142.700462,75.2290528 142.398509,74.9606504 C142.096557,74.692248 141.654818,74.5580488 141.073279,74.5580488 C140.42464,74.5580488 139.899026,74.6754731 139.496423,74.9103252 C139.093819,75.1451773 138.786279,75.4583088 138.573794,75.849729 C138.361309,76.2411492 138.221518,76.6828882 138.154417,77.1749593 C138.087317,77.6670305 138.053767,78.1814607 138.053767,78.7182656 L138.053767,86.8373984 L133.021247,86.8373984 L133.021247,70.5320325 Z" id="Premium"></path>
            </g>
        </g>
    </g>
</svg>