<?xml version="1.0" encoding="UTF-8"?>
<svg width="82px" height="16px" viewBox="0 0 82 16" version="1.1" xmlns="http://www.w3.org/2000/svg" xmlns:xlink="http://www.w3.org/1999/xlink">
    <!-- Generator: Sketch 54.1 (76490) - https://sketchapp.com -->
    <title>Premium</title>
    <desc>Created with Sketch.</desc>
    <defs>
        <linearGradient x1="-22.5357046%" y1="46.8522674%" x2="123.236263%" y2="53.5584502%" id="linearGradient-1">
            <stop stop-color="#FFCD2C" offset="0%"></stop>
            <stop stop-color="#FF0663" offset="100%"></stop>
        </linearGradient>
    </defs>
    <g id="Subscription" stroke="none" stroke-width="1" fill="none" fill-rule="evenodd">
        <g id="iPhone-8-Plus-Copy-2" transform="translate(-292.000000, -520.000000)" fill="url(#linearGradient-1)" fill-rule="nonzero">
            <g id="Group-2" transform="translate(277.000000, 449.000000)">
                <path d="M15.44,71.84 L20.7,71.84 C21.433337,71.84 22.1266634,71.906666 22.78,72.04 C23.4333366,72.173334 24.0033309,72.4033317 24.49,72.73 C24.9766691,73.0566683 25.3633319,73.4966639 25.65,74.05 C25.9366681,74.6033361 26.08,75.2999958 26.08,76.14 C26.08,76.9666708 25.946668,77.6599972 25.68,78.22 C25.413332,78.7800028 25.046669,79.226665 24.58,79.56 C24.113331,79.893335 23.5600032,80.1299993 22.92,80.27 C22.2799968,80.4100007 21.5866704,80.48 20.84,80.48 L18.56,80.48 L18.56,86 L15.44,86 L15.44,71.84 Z M18.56,77.84 L20.64,77.84 C20.9200014,77.84 21.1899987,77.8133336 21.45,77.76 C21.7100013,77.7066664 21.9433323,77.6166673 22.15,77.49 C22.3566677,77.3633327 22.5233327,77.1900011 22.65,76.97 C22.7766673,76.7499989 22.84,76.473335 22.84,76.14 C22.84,75.7799982 22.7566675,75.4900011 22.59,75.27 C22.4233325,75.0499989 22.2100013,74.8800006 21.95,74.76 C21.6899987,74.6399994 21.4000016,74.5633335 21.08,74.53 C20.7599984,74.4966665 20.4533348,74.48 20.16,74.48 L18.56,74.48 L18.56,77.84 Z M27.66,76.28 L30.66,76.28 L30.66,77.84 L30.7,77.84 C31.0200016,77.239997 31.3999978,76.7900015 31.84,76.49 C32.2800022,76.1899985 32.83333,76.04 33.5,76.04 C33.6733342,76.04 33.8466658,76.0466666 34.02,76.06 C34.1933342,76.0733334 34.3533326,76.0999998 34.5,76.14 L34.5,78.88 C34.2866656,78.813333 34.0766677,78.7633335 33.87,78.73 C33.6633323,78.6966665 33.4466678,78.68 33.22,78.68 C32.6466638,78.68 32.193335,78.7599992 31.86,78.92 C31.526665,79.0800008 31.2700009,79.3033319 31.09,79.59 C30.9099991,79.8766681 30.7933336,80.219998 30.74,80.62 C30.6866664,81.020002 30.66,81.4599976 30.66,81.94 L30.66,86 L27.66,86 L27.66,76.28 Z M45,84.32 C44.5199976,84.9333364 43.913337,85.406665 43.18,85.74 C42.446663,86.073335 41.6866706,86.24 40.9,86.24 C40.1533296,86.24 39.4500033,86.1200012 38.79,85.88 C38.1299967,85.6399988 37.5566691,85.2966689 37.07,84.85 C36.5833309,84.4033311 36.2000014,83.8666698 35.92,83.24 C35.6399986,82.6133302 35.5,81.9133372 35.5,81.14 C35.5,80.3666628 35.6399986,79.6666698 35.92,79.04 C36.2000014,78.4133302 36.5833309,77.8766689 37.07,77.43 C37.5566691,76.9833311 38.1299967,76.6400012 38.79,76.4 C39.4500033,76.1599988 40.1533296,76.04 40.9,76.04 C41.5933368,76.04 42.2233305,76.1599988 42.79,76.4 C43.3566695,76.6400012 43.8366647,76.9833311 44.23,77.43 C44.6233353,77.8766689 44.9266656,78.4133302 45.14,79.04 C45.3533344,79.6666698 45.46,80.3666628 45.46,81.14 L45.46,82.08 L38.5,82.08 C38.6200006,82.6533362 38.879998,83.1099983 39.28,83.45 C39.680002,83.7900017 40.1733304,83.96 40.76,83.96 C41.2533358,83.96 41.6699983,83.8500011 42.01,83.63 C42.3500017,83.4099989 42.6466654,83.1266684 42.9,82.78 L45,84.32 Z M42.46,80.04 C42.4733334,79.5333308 42.3066684,79.1000018 41.96,78.74 C41.6133316,78.3799982 41.1666694,78.2 40.62,78.2 C40.286665,78.2 39.9933346,78.2533328 39.74,78.36 C39.4866654,78.4666672 39.2700009,78.6033325 39.09,78.77 C38.9099991,78.9366675 38.7700005,79.1299989 38.67,79.35 C38.5699995,79.5700011 38.5133334,79.7999988 38.5,80.04 L42.46,80.04 Z M47.28,76.28 L50.16,76.28 L50.16,77.6 L50.2,77.6 C50.2933338,77.4133324 50.4266658,77.2266676 50.6,77.04 C50.7733342,76.8533324 50.9799988,76.6866674 51.22,76.54 C51.4600012,76.3933326 51.7333318,76.2733338 52.04,76.18 C52.3466682,76.0866662 52.6799982,76.04 53.04,76.04 C53.7200034,76.04 54.3233307,76.1799986 54.85,76.46 C55.3766693,76.7400014 55.773332,77.179997 56.04,77.78 C56.3866684,77.1533302 56.8066642,76.706668 57.3,76.44 C57.7933358,76.173332 58.3999964,76.04 59.12,76.04 C59.7733366,76.04 60.3233311,76.1499989 60.77,76.37 C61.2166689,76.5900011 61.5699987,76.8899981 61.83,77.27 C62.0900013,77.6500019 62.2766661,78.0966641 62.39,78.61 C62.5033339,79.1233359 62.56,79.6733304 62.56,80.26 L62.56,86 L59.56,86 L59.56,80.34 C59.56,79.8866644 59.4633343,79.4966683 59.27,79.17 C59.0766657,78.8433317 58.7333358,78.68 58.24,78.68 C57.8933316,78.68 57.6033345,78.7366661 57.37,78.85 C57.1366655,78.9633339 56.9500007,79.119999 56.81,79.32 C56.6699993,79.520001 56.5700003,79.753332 56.51,80.02 C56.4499997,80.286668 56.42,80.5666652 56.42,80.86 L56.42,86 L53.42,86 L53.42,80.86 C53.42,80.6866658 53.4133334,80.4733346 53.4,80.22 C53.3866666,79.9666654 53.3400004,79.7266678 53.26,79.5 C53.1799996,79.2733322 53.0500009,79.0800008 52.87,78.92 C52.6899991,78.7599992 52.4266684,78.68 52.08,78.68 C51.6933314,78.68 51.3800012,78.7499993 51.14,78.89 C50.8999988,79.0300007 50.7166673,79.2166655 50.59,79.45 C50.4633327,79.6833345 50.3800002,79.9466652 50.34,80.24 C50.2999998,80.5333348 50.28,80.8399984 50.28,81.16 L50.28,86 L47.28,86 L47.28,76.28 Z M64.72,76.28 L67.72,76.28 L67.72,86 L64.72,86 L64.72,76.28 Z M64.48,73.22 C64.48,72.7399976 64.6499983,72.3300017 64.99,71.99 C65.3300017,71.6499983 65.7399976,71.48 66.22,71.48 C66.7000024,71.48 67.1099983,71.6499983 67.45,71.99 C67.7900017,72.3300017 67.96,72.7399976 67.96,73.22 C67.96,73.7000024 67.7900017,74.1099983 67.45,74.45 C67.1099983,74.7900017 66.7000024,74.96 66.22,74.96 C65.7399976,74.96 65.3300017,74.7900017 64.99,74.45 C64.6499983,74.1099983 64.48,73.7000024 64.48,73.22 Z M79.24,86 L76.36,86 L76.36,84.68 L76.32,84.68 C76.2133328,84.8666676 76.0766675,85.0533324 75.91,85.24 C75.7433325,85.4266676 75.5400012,85.5933326 75.3,85.74 C75.0599988,85.8866674 74.7866682,86.0066662 74.48,86.1 C74.1733318,86.1933338 73.8400018,86.24 73.48,86.24 C72.7199962,86.24 72.1033357,86.1233345 71.63,85.89 C71.1566643,85.6566655 70.7900013,85.3333354 70.53,84.92 C70.2699987,84.5066646 70.0966671,84.0200028 70.01,83.46 C69.9233329,82.8999972 69.88,82.2933366 69.88,81.64 L69.88,76.28 L72.88,76.28 L72.88,81.04 C72.88,81.3200014 72.8899999,81.6099985 72.91,81.91 C72.9300001,82.2100015 72.9899995,82.4866654 73.09,82.74 C73.1900005,82.9933346 73.3433323,83.1999992 73.55,83.36 C73.7566677,83.5200008 74.0533314,83.6 74.44,83.6 C74.8266686,83.6 75.1399988,83.5300007 75.38,83.39 C75.6200012,83.2499993 75.8033327,83.0633345 75.93,82.83 C76.0566673,82.5966655 76.1399998,82.3333348 76.18,82.04 C76.2200002,81.7466652 76.24,81.4400016 76.24,81.12 L76.24,76.28 L79.24,76.28 L79.24,86 Z M81.36,76.28 L84.24,76.28 L84.24,77.6 L84.28,77.6 C84.3733338,77.4133324 84.5066658,77.2266676 84.68,77.04 C84.8533342,76.8533324 85.0599988,76.6866674 85.3,76.54 C85.5400012,76.3933326 85.8133318,76.2733338 86.12,76.18 C86.4266682,76.0866662 86.7599982,76.04 87.12,76.04 C87.8000034,76.04 88.4033307,76.1799986 88.93,76.46 C89.4566693,76.7400014 89.853332,77.179997 90.12,77.78 C90.4666684,77.1533302 90.8866642,76.706668 91.38,76.44 C91.8733358,76.173332 92.4799964,76.04 93.2,76.04 C93.8533366,76.04 94.4033311,76.1499989 94.85,76.37 C95.2966689,76.5900011 95.6499987,76.8899981 95.91,77.27 C96.1700013,77.6500019 96.3566661,78.0966641 96.47,78.61 C96.5833339,79.1233359 96.64,79.6733304 96.64,80.26 L96.64,86 L93.64,86 L93.64,80.34 C93.64,79.8866644 93.5433343,79.4966683 93.35,79.17 C93.1566657,78.8433317 92.8133358,78.68 92.32,78.68 C91.9733316,78.68 91.6833345,78.7366661 91.45,78.85 C91.2166655,78.9633339 91.0300007,79.119999 90.89,79.32 C90.7499993,79.520001 90.6500003,79.753332 90.59,80.02 C90.5299997,80.286668 90.5,80.5666652 90.5,80.86 L90.5,86 L87.5,86 L87.5,80.86 C87.5,80.6866658 87.4933334,80.4733346 87.48,80.22 C87.4666666,79.9666654 87.4200004,79.7266678 87.34,79.5 C87.2599996,79.2733322 87.1300009,79.0800008 86.95,78.92 C86.7699991,78.7599992 86.5066684,78.68 86.16,78.68 C85.7733314,78.68 85.4600012,78.7499993 85.22,78.89 C84.9799988,79.0300007 84.7966673,79.2166655 84.67,79.45 C84.5433327,79.6833345 84.4600002,79.9466652 84.42,80.24 C84.3799998,80.5333348 84.36,80.8399984 84.36,81.16 L84.36,86 L81.36,86 L81.36,76.28 Z" id="Premium"></path>
            </g>
        </g>
    </g>
</svg>