<?xml version="1.0" encoding="UTF-8"?>
<svg width="32px" height="16px" viewBox="0 0 32 16" version="1.1" xmlns="http://www.w3.org/2000/svg" xmlns:xlink="http://www.w3.org/1999/xlink">
    <!-- Generator: Sketch 54.1 (76490) - https://sketchapp.com -->
    <title>Pro</title>
    <desc>Created with Sketch.</desc>
    <defs>
        <linearGradient x1="-58.5030006%" y1="24.4808821%" x2="155.753251%" y2="73.5662762%" id="linearGradient-1">
            <stop stop-color="#17EAD9" offset="0%"></stop>
            <stop stop-color="#002CFF" offset="100%"></stop>
        </linearGradient>
    </defs>
    <g id="Subscription" stroke="none" stroke-width="1" fill="none" fill-rule="evenodd">
        <g id="iPhone-8-Plus-Copy-2" transform="translate(-162.000000, -520.000000)" fill="url(#linearGradient-1)" fill-rule="nonzero">
            <path d="M162.44,520.84 L167.7,520.84 C168.433337,520.84 169.126663,520.906666 169.78,521.04 C170.433337,521.173334 171.003331,521.403332 171.49,521.73 C171.976669,522.056668 172.363332,522.496664 172.65,523.05 C172.936668,523.603336 173.08,524.299996 173.08,525.14 C173.08,525.966671 172.946668,526.659997 172.68,527.22 C172.413332,527.780003 172.046669,528.226665 171.58,528.56 C171.113331,528.893335 170.560003,529.129999 169.92,529.27 C169.279997,529.410001 168.58667,529.48 167.84,529.48 L165.56,529.48 L165.56,535 L162.44,535 L162.44,520.84 Z M165.56,526.84 L167.64,526.84 C167.920001,526.84 168.189999,526.813334 168.45,526.76 C168.710001,526.706666 168.943332,526.616667 169.15,526.49 C169.356668,526.363333 169.523333,526.190001 169.65,525.97 C169.776667,525.749999 169.84,525.473335 169.84,525.14 C169.84,524.779998 169.756667,524.490001 169.59,524.27 C169.423332,524.049999 169.210001,523.880001 168.95,523.76 C168.689999,523.639999 168.400002,523.563333 168.08,523.53 C167.759998,523.496666 167.453335,523.48 167.16,523.48 L165.56,523.48 L165.56,526.84 Z M174.66,525.28 L177.66,525.28 L177.66,526.84 L177.7,526.84 C178.020002,526.239997 178.399998,525.790002 178.84,525.49 C179.280002,525.189999 179.83333,525.04 180.5,525.04 C180.673334,525.04 180.846666,525.046667 181.02,525.06 C181.193334,525.073333 181.353333,525.1 181.5,525.14 L181.5,527.88 C181.286666,527.813333 181.076668,527.763334 180.87,527.73 C180.663332,527.696666 180.446668,527.68 180.22,527.68 C179.646664,527.68 179.193335,527.759999 178.86,527.92 C178.526665,528.080001 178.270001,528.303332 178.09,528.59 C177.909999,528.876668 177.793334,529.219998 177.74,529.62 C177.686666,530.020002 177.66,530.459998 177.66,530.94 L177.66,535 L174.66,535 L174.66,525.28 Z M182.44,530.14 C182.44,529.366663 182.579999,528.66667 182.86,528.04 C183.140001,527.41333 183.523331,526.876669 184.01,526.43 C184.496669,525.983331 185.069997,525.640001 185.73,525.4 C186.390003,525.159999 187.09333,525.04 187.84,525.04 C188.58667,525.04 189.289997,525.159999 189.95,525.4 C190.610003,525.640001 191.183331,525.983331 191.67,526.43 C192.156669,526.876669 192.539999,527.41333 192.82,528.04 C193.100001,528.66667 193.24,529.366663 193.24,530.14 C193.24,530.913337 193.100001,531.61333 192.82,532.24 C192.539999,532.86667 192.156669,533.403331 191.67,533.85 C191.183331,534.296669 190.610003,534.639999 189.95,534.88 C189.289997,535.120001 188.58667,535.24 187.84,535.24 C187.09333,535.24 186.390003,535.120001 185.73,534.88 C185.069997,534.639999 184.496669,534.296669 184.01,533.85 C183.523331,533.403331 183.140001,532.86667 182.86,532.24 C182.579999,531.61333 182.44,530.913337 182.44,530.14 Z M185.44,530.14 C185.44,530.873337 185.649998,531.466664 186.07,531.92 C186.490002,532.373336 187.079996,532.6 187.84,532.6 C188.600004,532.6 189.189998,532.373336 189.61,531.92 C190.030002,531.466664 190.24,530.873337 190.24,530.14 C190.24,529.406663 190.030002,528.813336 189.61,528.36 C189.189998,527.906664 188.600004,527.68 187.84,527.68 C187.079996,527.68 186.490002,527.906664 186.07,528.36 C185.649998,528.813336 185.44,529.406663 185.44,530.14 Z" id="Pro"></path>
        </g>
    </g>
</svg>