<?xml version="1.0" encoding="UTF-8"?>
<svg width="22px" height="22px" viewBox="0 0 22 22" version="1.1" xmlns="http://www.w3.org/2000/svg" xmlns:xlink="http://www.w3.org/1999/xlink">
    <!-- Generator: Sketch 54.1 (76490) - https://sketchapp.com -->
    <title>Shape</title>
    <desc>Created with Sketch.</desc>
    <g id="App-Pages" stroke="none" stroke-width="1" fill="none" fill-rule="evenodd">
        <g id="Continue---New-Inspection" transform="translate(-42.000000, -785.000000)" fill="#FFFFFF">
            <g id="Facebook-Button-Copy-2" transform="translate(20.000000, 766.000000)">
                <path d="M39.1111111,19 L24.4444444,19 C23.1,19 22,20.1 22,21.4444444 L22,38.5555556 C22,39.9 23.1,41 24.4444444,41 L41.5555556,41 C42.9,41 44,39.9 44,38.5555556 L44,23.8888889 L39.1111111,19 L39.1111111,19 Z M33,38.5555556 C30.9222222,38.5555556 29.3333333,36.9666667 29.3333333,34.8888889 C29.3333333,32.8111111 30.9222222,31.2222222 33,31.2222222 C35.0777778,31.2222222 36.6666667,32.8111111 36.6666667,34.8888889 C36.6666667,36.9666667 35.0777778,38.5555556 33,38.5555556 L33,38.5555556 Z M36.6666667,26.3333333 L24.4444444,26.3333333 L24.4444444,21.4444444 L36.6666667,21.4444444 L36.6666667,26.3333333 L36.6666667,26.3333333 Z" id="Shape"></path>
            </g>
        </g>
    </g>
</svg>