<?xml version="1.0" encoding="UTF-8"?>
<svg width="53px" height="53px" viewBox="0 0 53 53" version="1.1" xmlns="http://www.w3.org/2000/svg" xmlns:xlink="http://www.w3.org/1999/xlink">
    <!-- Generator: Sketch 54.1 (76490) - https://sketchapp.com -->
    <title>Group 4</title>
    <desc>Created with Sketch.</desc>
    <g id="Profile" stroke="none" stroke-width="1" fill="none" fill-rule="evenodd">
        <g id="Side-Menu" transform="translate(-31.000000, -599.000000)" fill-rule="nonzero">
            <g id="Group-2-Copy-2" transform="translate(15.000000, 589.000000)">
                <g id="Group-4" transform="translate(16.000000, 10.000000)">
                    <rect id="Rectangle" fill="#4A4A4A" x="0" y="0" width="52.5" height="52.5" rx="26.25"></rect>
                    <path d="M37.3333333,24.8333333 C36.3236084,24.8333333 35.4266459,24.2036031 35.0707093,23.2586772 C35.0036723,23.0807088 34.9312948,22.9053853 34.8536784,22.7329102 C34.4390463,21.8111776 34.6241863,20.732839 35.3388062,20.0181682 L35.338857,20.0181682 C35.9896952,19.3673299 35.9896952,18.3120321 35.338857,17.661143 L35.3388062,17.661143 C34.6879679,17.0103047 33.6326701,17.0103047 32.9818319,17.661143 C32.2671611,18.3758138 31.1887716,18.5609537 30.2670899,18.1463217 C30.0946147,18.0687053 29.9192913,17.9962769 29.7412721,17.92924 C28.796346,17.5733033 28.1666667,16.6763916 28.1666667,15.6666667 C28.1666667,14.7461548 27.420461,14 26.5,14 C25.579539,14 24.8333333,14.7461548 24.8333333,15.6666667 C24.8333333,16.6763916 24.203654,17.5733032 23.258728,17.9292399 C23.0807088,17.9962768 22.9053853,18.0687053 22.7329102,18.1463216 C21.8112284,18.5609537 20.732839,18.3758137 20.0181682,17.6611429 C19.3673299,17.0103047 18.3120321,17.0103047 17.6611939,17.6611429 L17.6611431,17.6611429 C17.0103048,18.312032 17.0103048,19.3673298 17.6611431,20.0181681 L17.6611939,20.0181681 C18.3758138,20.7328389 18.5609538,21.8111775 18.1463217,22.7329101 C18.0687053,22.9053853 17.9963278,23.0807087 17.9292908,23.2586771 C17.5733541,24.2036031 16.6763916,24.8333333 15.6666667,24.8333333 C14.7462057,24.8333333 14,25.5794881 14,26.5 C14,27.420461 14.7462057,28.1666667 15.6666667,28.1666667 C16.6763916,28.1666667 17.5733541,28.796346 17.9292907,29.741272 C17.9963277,29.9192403 18.0687053,30.0946147 18.1463216,30.2670898 C18.5609537,31.1887716 18.3758137,32.267161 17.6611938,32.981781 L17.661143,32.981781 C17.0103047,33.6326701 17.0103047,34.6879679 17.661143,35.3388062 L17.6611938,35.3388062 C18.3120321,35.9896952 19.3673299,35.9896952 20.0181681,35.3388062 L20.0182189,35.3388062 C20.7328388,34.6241863 21.8112283,34.4390463 22.7329101,34.8536784 C22.9053853,34.9312947 23.0807087,35.0036723 23.2587279,35.0707092 C24.203654,35.4266459 24.8333333,36.3235575 24.8333333,37.3333333 C24.8333333,38.2537943 25.579539,39 26.5,39 C27.420461,39 28.1666667,38.2537943 28.1666667,37.3333333 C28.1666667,36.3235575 28.796346,35.4266459 29.741272,35.0707093 C29.9192912,35.0036723 30.0946147,34.9312948 30.2670898,34.8536784 C31.1887716,34.4390463 32.267161,34.6241863 32.9818318,35.3388062 C33.6326701,35.9896952 34.6879679,35.9896952 35.3388061,35.3388062 L35.3388569,35.3388062 C35.9896952,34.6879679 35.9896952,33.6326701 35.3388569,32.981781 L35.3388061,32.981781 C34.6241862,32.2671611 34.4390462,31.1887716 34.8536783,30.2670898 C34.9312947,30.0946147 35.0036723,29.9192403 35.0707092,29.741272 C35.4266459,28.796346 36.3236084,28.1666667 37.3333333,28.1666667 C38.2537943,28.1666667 39,27.420461 39,26.5 C39,25.5794881 38.2537943,24.8333333 37.3333333,24.8333333 Z M26.5,30.6666667 C24.198822,30.6666667 22.3333333,28.801178 22.3333333,26.5 C22.3333333,24.198822 24.198822,22.3333333 26.5,22.3333333 C28.801178,22.3333333 30.6666667,24.198822 30.6666667,26.5 C30.6666667,28.801178 28.801178,30.6666667 26.5,30.6666667 Z" id="Shape-Copy" fill="#FFFFFF"></path>
                </g>
            </g>
        </g>
    </g>
</svg>